<svg version="1.2" xmlns="http://www.w3.org/2000/svg" viewBox="0 0 208 242" width="208" height="242">
	<style>
		.s0 { opacity: 1;fill: #636363 } 
		.s1 { opacity: 1;fill: #6e6e6e } 
		.s2 { opacity: 1;fill: #f3f3f3 } 
		.s3 { fill: #020202 } 
		.s4 { fill: #070707 } 
		.s5 { fill: #2e2e2e } 
		.s6 { fill: #3b3b3b } 
		.s7 { fill: #454545 } 
		.s8 { fill: #555555 } 
		.s9 { fill: #7e7e7e } 
		.s10 { fill: #8d8d8d } 
		.s11 { fill: #989898 } 
		.s12 { fill: #a8a8a8 } 
		.s13 { fill: #bbbbbb } 
		.s14 { fill: #c7c7c7 } 
		.s15 { fill: #d3d3d3 } 
		.s16 { fill: #dfdfdf } 
		.s17 { fill: #f9f9f9 } 
		.s18 { fill: #fcfcfc } 
		.s19 { fill: #fefefe } 
	</style>
	<g id="Layer 1">
		<g id="Background">
			<path id="Path 0" fill-rule="evenodd" class="s0" d="m53.06 114.7c-0.07 0.44 0.8 1.7 1.94 2.8 1.14 1.1 2.05 2.34 2.03 2.75-0.02 0.41-0.7 0.53-1.53 0.25-0.83-0.28-1.5-0.28-1.5 0 0 0.28 1.01 0.89 2.25 1.37 1.47 0.58 2.5 0.49 2.98-0.25 0.41-0.61 0.79-1.4 0.85-1.75 0.06-0.35-1.47-1.83-3.39-3.3-1.93-1.47-3.56-2.31-3.63-1.87zm9.08 5.73c-0.08 0.86 0.42 1.76 1.11 1.99 1 0.34 1 0.44 0 0.5-0.69 0.04-1.25 0.75-1.25 1.58 0 0.82 0.34 1.51 0.75 1.51 0.41 0.01 1.65 0.26 2.75 0.55 1.49 0.41 2 0.06 2-1.38 0-1.07-0.55-1.76-1.25-1.55-0.69 0.2-1.19-0.11-1.11-0.7 0.08-0.59-0.53-1.75-1.35-2.57-1.34-1.34-1.52-1.33-1.65 0.07zm31.66 9.78c0.11 0.44 0.65 1.01 1.2 1.29 0.55 0.28 1.01 1.96 1.02 3.75 0.01 2.39 0.25 2.85 0.92 1.75 0.73-1.2 0.99-0.99 1.31 1l0.4 2.5c1.87-4.4 1.8-5.36 0.76-6.5-0.75-0.82-1.46-2.26-1.58-3.19-0.14-1.01-1.03-1.63-2.23-1.54-1.1 0.09-1.91 0.51-1.8 0.94zm-15.38 26.46c-0.23 0.73-0.2 1.78 0.08 2.33 0.31 0.63 1.07 0.54 2.04-0.25 0.85-0.69 1.45-1.74 1.34-2.33-0.12-0.6-0.85-1.09-1.63-1.09-0.78 0-1.6 0.6-1.83 1.34zm23.16-0.68c-0.32 0.56 0.11 1.57 0.94 2.26 0.84 0.69 1.74 0.91 2 0.5 0.27-0.41-0.16-1.43-0.94-2.26-0.87-0.92-1.65-1.11-2-0.5zm28.42 3.01c0 1.1 1.12 2.68 2.5 3.5 1.37 0.82 2.74 1.39 3.02 1.25 0.29-0.14-0.18-0.93-1.04-1.75-0.86-0.82-1.55-2.29-1.52-3.25 0.02-0.96-0.64-1.75-1.46-1.75-0.83 0-1.5 0.89-1.5 2zm-56.97 10.73c-0.02 0.42 0.63 1.78 1.46 3.02 0.83 1.24 1.96 2.03 2.51 1.75 0.55-0.28 1.02-0.9 1.04-1.38 0.02-0.49-1.08-1.63-2.46-2.53-1.37-0.9-2.52-1.29-2.55-0.86zm66.52 1.27c-0.3 0.55-0.21 1.21 0.2 1.48 0.41 0.26 1.1 0.15 1.53-0.25 0.43-0.4 0.76-1.07 0.75-1.48-0.02-0.41-0.46-0.75-0.98-0.75-0.52 0-1.2 0.45-1.5 1zm-6.36 8.63c-0.15 0.48 0.44 1.55 1.31 2.37 1.02 0.96 1.66 1.1 1.78 0.37 0.1-0.62-0.49-1.69-1.31-2.37-0.83-0.68-1.63-0.85-1.78-0.37zm-21.41 10.18c-0.95 0.93-1.74 2.25-1.75 2.94-0.02 0.93 0.6 1 2.47 0.25q2.5-1 3 0c0.28 0.55 1.06 1.01 1.75 1.03q1.24 0.03-0.5-2c-0.96-1.12-1.62-2.48-1.46-3.03 0.16-0.55-0.17-0.97-0.75-0.94-0.57 0.03-1.81 0.82-2.76 1.75z"/>
			<path id="Path 1" fill-rule="evenodd" class="s1" d="m63.39 25.96c0.34 0.57 1.85 1.05 3.36 1.07 1.51 0.01 2.53-0.15 2.25-0.36-0.28-0.21-1.79-0.69-3.36-1.07-1.87-0.44-2.65-0.32-2.25 0.36zm32.61 45.54c0 0.83-0.56 1.69-1.25 1.92-0.69 0.23 0.14 0.46 1.83 0.5 1.7 0.04 3.38-0.26 3.74-0.67 0.36-0.41-0.13-1.3-1.08-1.97-0.96-0.67-2.08-1.23-2.49-1.25-0.41-0.02-0.75 0.64-0.75 1.47zm7.1 48.94c-0.05 1.41-0.55 2.56-1.1 2.56q-1 0 0 2c0.55 1.1 1.45 1.78 2 1.5 0.55-0.28 1.05-2.05 1.1-3.94 0.06-1.89-0.35-3.72-0.9-4.06-0.56-0.35-1.04 0.51-1.1 1.94zm-54.38 14.8c1.77 1.79 3.46 2.92 3.75 2.51 0.29-0.41-0.71-1.89-2.22-3.28-1.51-1.4-3.2-2.53-3.75-2.51-0.55 0.01 0.45 1.49 2.22 3.28zm37.51 9.64c-0.13 1.16 0.33 2.43 1.02 2.81 0.69 0.38 1.36 0.15 1.5-0.5 0.14-0.66 1.04-1.19 2-1.19 0.96 0 1.79-0.68 1.83-1.5 0.05-0.82-0.51-1.5-1.25-1.5-0.73 0-1.48 0.56-1.67 1.25-0.26 0.97-0.66 0.94-1.76-0.12-1.23-1.17-1.47-1.06-1.67 0.75zm4.79 5.87c0 0.41 0.34 1.29 0.75 1.95 0.45 0.73 1.31 0.87 2.23 0.36 0.83-0.46 1.16-1.34 0.75-1.95-0.41-0.61-1.42-1.11-2.25-1.11-0.82 0-1.49 0.34-1.48 0.75zm33.95 6c-0.01 0.41 0.32 1.06 0.75 1.45 0.43 0.38 1.46 0.44 2.28 0.12 1.33-0.51 1.33-0.67 0-1.43-0.82-0.47-1.84-0.87-2.25-0.87-0.41-0.01-0.76 0.32-0.78 0.73zm-47.14 9.26c-1.03 0.64-1.06 1.14-0.15 2.16 0.7 0.8 2.7 1.2 5 1.01 3.5-0.3 3.66-0.43 1.82-1.59-1.1-0.69-2.75-1.52-3.67-1.83-0.91-0.32-2.26-0.2-3 0.25zm21.11 8.92c-0.62 1.07-1.08 2.19-1.03 2.5 0.05 0.32 0.6 0.46 1.23 0.32 0.62-0.14 1.27-1.26 1.43-2.5 0.16-1.24 0.11-2.25-0.11-2.25-0.22 0-0.91 0.87-1.52 1.93zm2.72 1.82c-0.76 1.51-1.22 3.31-1.02 4 0.2 0.69 0.81 1.25 1.36 1.25 0.55 0 1-0.9 1-2 0-1.1 0.45-2 1-2 0.55 0 1-0.9 1-2 0-1.1-0.44-2-0.98-2-0.54 0-1.6 1.24-2.36 2.75zm14.44 19.5c-1.65 1.79-2.8 3.47-2.56 3.75 0.25 0.28 1.24-0.23 2.2-1.12 0.97-0.89 2.21-1.44 2.76-1.22 0.55 0.21 1.22-0.74 1.5-2.11 0.28-1.38 0.18-2.52-0.2-2.53-0.39-0.01-2.05 1.44-3.7 3.23zm-24.91 4c-0.76 0.92-0.39 1.58 1.39 2.5 1.45 0.75 2.42 0.85 2.42 0.25 0-0.55-0.45-1-1-1-0.55 0-0.88-0.68-0.73-1.5 0.15-0.82-0.03-1.5-0.39-1.5-0.36 0-1.12 0.56-1.69 1.25z"/>
			<path id="Path 2" fill-rule="evenodd" class="s2" d="m98.48 116.5c-0.27 0.83 0.08 2.2 0.77 3.04 1.02 1.27 0.98 1.53-0.25 1.46-1.23-0.07-1.27 0.19-0.25 1.46 0.69 0.84 1.92 1.32 2.75 1.04 0.84-0.28 1.51-1.71 1.52-3.25 0.01-1.51-0.56-3.32-1.25-4.02-0.7-0.69-1.62-1.26-2.04-1.25-0.43 0.01-0.99 0.69-1.25 1.52zm-12.77 47.75c-0.23 0.69 0.41 2.49 1.43 4 1.2 1.77 2.75 2.75 4.36 2.75h2.5c-4.65-6.2-6.42-8-6.93-8-0.52 0-1.13 0.56-1.36 1.25zm37.06 11.72c0.1 0.29 1.2 1.55 2.45 2.8 2.28 2.26 2.28 2.26 3.85 0.25 1.2-1.55 1.26-2.02 0.25-2.02-0.73 0-1.41-0.44-1.52-0.99-0.11-0.54-1.33-0.89-2.7-0.78-1.38 0.11-2.42 0.45-2.33 0.74zm-3.85 4.54c-1.33 1.24-1.97 2.51-1.42 2.81 0.55 0.3 1.67 0.15 2.5-0.33q1.5-0.9 3.25 0.81c1.13 1.1 2.37 1.43 3.5 0.94 1.64-0.7 1.62-0.89-0.25-2.85-1.1-1.15-2.71-2.44-3.58-2.86-1.04-0.52-2.4-0.01-4 1.48z"/>
			<path id="Path 3" fill-rule="evenodd" class="s3" d="m104.99 12.43c-0.82 1.03-1.36 2.81-1.19 3.97 0.16 1.15-0.4 3.79-1.25 5.85-1.01 2.44-2.6 4.19-4.55 5-1.65 0.69-3 1.59-3 2 0 0.41-3.82 0.52-8.5 0.25-5.33-0.31-8.5-0.13-8.5 0.5 0 0.55 0.45 1.23 1 1.5 0.55 0.27 2.91 0.68 5.25 0.9 2.34 0.21 5.38 0.83 6.75 1.38 1.38 0.54 2.74 0.92 3.02 0.85 0.29-0.07 1.34 0.54 2.33 1.37 0.98 0.83 2.66 2.29 3.72 3.25 1.44 1.31 1.82 2.7 1.51 5.5-0.23 2.06 0.11 4.38 0.75 5.15 0.69 0.83 1.21 5.16 1.26 10.5 0.08 7.91-0.18 9.4-2 11.38-1.22 1.33-3.23 2.26-4.84 2.25-1.51-0.02-2.77-0.59-2.79-1.28-0.01-0.69-0.66-0.13-1.43 1.25-0.77 1.37-2.21 2.61-3.21 2.74-1 0.13-3.01 1.71-4.47 3.5-2.6 3.19-2.62 3.3-0.75 5.01 1.04 0.96 2.12 1.75 2.4 1.75 0.28 0 0.28-0.45 0-1-0.28-0.55 0.74-1.47 2.25-2.05 1.51-0.57 3.2-1.67 3.75-2.43 0.55-0.77 2.13-1.53 3.5-1.71 1.38-0.17 2.82-0.76 3.21-1.31q0.71-1 1.73 0c0.7 0.68 0.15 2.23-1.71 4.84-2.35 3.3-2.83 3.58-3.41 2-0.59-1.59-0.69-1.54-0.75 0.41-0.04 1.24-0.59 2.14-1.23 2-0.63-0.14-6.48 5.04-13 11.5-6.51 6.46-12.29 11.75-12.84 11.75-0.55 0-0.84 0.56-0.65 1.25 0.19 0.69 1.32 1.25 2.49 1.25 1.18 0 2.15 0 2.15 0 0.01 0-0.44 1.46-0.99 3.25-0.81 2.62-0.71 3.35 0.5 3.75 0.88 0.29 2.95-1.05 5-3.25 2.25-2.41 3.17-4.11 2.56-4.75-0.52-0.55-0.63-1.45-0.25-2 0.38-0.55 1.7-1.56 2.94-2.25 1.87-1.04 2.46-0.99 3.5 0.3 0.69 0.86 1.47 1.19 1.75 0.73 0.28-0.45 1.63-1.29 3-1.86 1.38-0.57 3.29-0.9 4.25-0.73 0.96 0.17 1.75 0.76 1.75 1.31q0 1 2 0c1.1-0.55 2.34-0.74 2.75-0.41 0.41 0.32-0.26 1.44-1.5 2.5-1.24 1.05-2.03 2.58-1.75 3.41 0.28 0.83 1.18 1.5 2 1.5 0.83 0 1.5-0.67 1.5-1.5 0-0.83 0.45-1.5 1-1.5 0.55 0 0.89 1.15 0.75 2.55-0.14 1.4 0.33 3.09 1.04 3.75 0.72 0.66 1.28 2.66 1.25 4.45-0.02 1.79-0.49 3.47-1.04 3.75-0.55 0.28-0.78 2.19-0.51 4.25 0.27 2.06 0.94 3.86 1.5 4 0.55 0.14 1.01 0.93 1.01 1.75 0 0.82-0.9 2.4-2 3.5-1.1 1.1-2.45 2-3 2-0.55 0-1-0.68-1-1.5 0-0.82-0.45-1.28-1-1-0.55 0.28-1.01-0.51-1.02-1.75 0-1.27-0.33-1.78-0.75-1.18-0.4 0.59-1.52 1.38-2.48 1.75-0.96 0.38-1.78 1.69-1.83 2.93-0.04 1.24-0.26 3.04-0.5 4-0.23 0.96 0.03 1.75 0.58 1.75 0.55 0 1-0.45 1-1 0-0.55 0.68-1 1.5-1 0.83 0 1.48 0.79 1.46 1.75-0.04 1.57 0.13 1.6 1.66 0.25 0.94-0.82 2.31-1.61 3.05-1.75 0.73-0.14 1.33 0.2 1.33 0.75 0 0.55 0.45 0.78 1 0.5 0.58-0.29 1 1.17 1 3.5 0 2.98-0.43 4.06-1.68 4.25-1.53 0.23-1.54 0.38-0.08 1.75 0.89 0.83 1.41 2.5 1.18 3.75-0.23 1.24-1.09 2.25-1.92 2.25-0.82 0-1.73-0.79-2.01-1.75-0.28-0.96-1.75-2.41-3.25-3.22-1.51-0.81-3.08-1.59-3.49-1.75-0.41-0.15-1.42 1.07-2.25 2.72-1.19 2.38-1.24 3.2-0.25 3.99 0.69 0.55 1.62 0.66 2.08 0.25 0.46-0.41 0.69-0.21 0.5 0.44-0.18 0.65 0.57 1.84 1.67 2.66l2 1.48c-3.1 3.29-4.9 4.25-6 4.26-1.1 0-2.54-0.57-3.2-1.29-0.78-0.83-2.66-1.11-5.33-0.79-3.51 0.42-4.46 0.12-6.31-2-1.2-1.38-3.42-3.18-4.95-4-1.52-0.82-2.75-2.06-2.74-2.75 0.02-0.69-0.87-1.47-1.97-1.75-1.1-0.28-2.22-1.4-2.5-2.5-0.28-1.1-0.84-2-1.25-2-0.41-0.01-1.31 0.89-2 2-0.79 1.27-0.88 2.18-0.25 2.5 0.55 0.28 0.78 1.18 0.5 2q-0.5 1.5 2 2c1.96 0.39 2.28 0.82 1.5 2-0.77 1.15-0.31 1.96 2 3.5 1.65 1.1 3.45 2 4 2 0.55 0 1 0.45 1 1 0 0.55 0.45 1 1 1 0.56 0 0.68-0.77 0.28-1.75-0.69-1.65-0.59-1.65 1.75 0.02 1.36 0.98 2.47 2.74 2.47 3.92 0 1.17 0.68 2.38 1.5 2.67q1.49 0.53 0.75-0.66c-0.41-0.66-0.3-1.42 0.25-1.7 0.55-0.28 1.22-0.05 1.5 0.5 0.28 0.55 1.63 1 3 1 1.56 0 2.5 0.57 2.5 1.5 0 1.1 0.61 1.31 2.25 0.8 1.24-0.38 3.26-0.61 4.5-0.5 1.24 0.11 2.03-0.25 1.75-0.8-0.28-0.55 0.2-1.56 1.04-2.25 0.85-0.69 1.51-0.8 1.46-0.25-0.05 0.55 0.69 0.32 1.64-0.5 1.56-1.35 1.67-1.33 1.05 0.25-0.38 0.96-0.24 1.97 0.31 2.25 0.55 0.28 1.22-0.18 1.5-1 0.28-0.82 0.95-1.5 1.5-1.5 0.55 0 1 0.9 1 2 0 1.1-0.56 2.22-1.25 2.5-1 0.4-1 0.6 0 1 0.69 0.28 1.25 2.07 1.25 4 0 1.93 0.45 3.5 1 3.5 0.55 0 1.22-0.45 1.5-1 0.28-0.55 1.4-0.78 2.5-0.5 1.5 0.37 2 0 2-1.5 0-1.1-0.45-2-1-2-0.55 0-0.96-1.46-0.92-3.25 0.04-1.79 0.27-2.69 0.5-2 0.23 0.69 0.87 1.25 1.42 1.25 0.56 0 0.68-0.77 0.28-1.75-0.58-1.39-0.38-1.6 1-1 0.94 0.41 2.73 0.74 3.97 0.72l2.25-0.04-4 4.49c4.82-3.08 5.2-3.06 7.75-1.31 1.51 1.04 2.77 1.55 2.79 1.14 0.03-0.41-0.67-1.43-1.54-2.25-0.87-0.82-1.57-1.84-1.54-2.25 0.02-0.41 1.39-0.64 3.04-0.5 1.64 0.14 3.16-0.2 3.37-0.75 0.21-0.55 0.66 0.24 1.01 1.75 0.34 1.51 0.96 2.75 1.37 2.75 0.41 0.01 1.31-0.89 2-2 0.89-1.43 0.97-2.71 0.25-4.5-0.63-1.57-1.56-2.31-2.5-2-0.82 0.28-1.49 0.16-1.47-0.25 0.02-0.41 0.7-1.65 1.52-2.75 0.82-1.1 1.48-2.34 1.47-2.75-0.01-0.41-0.47-0.75-1.02-0.75-0.55 0-1.31 0.79-1.69 1.75-0.39 0.96-1.29 2.31-2 3-0.72 0.69-1.98 1.03-2.81 0.75-0.82-0.28-1.5-0.05-1.5 0.5 0 0.58-1.17 0.73-2.75 0.37-1.51-0.34-3.31-0.68-4-0.75-0.69-0.06-1.25-0.46-1.25-0.87 0-0.41 0.71-1.43 1.57-2.25 0.87-0.82 1.99-1.5 2.5-1.5 0.51 0 0.88-0.34 0.81-0.75-0.06-0.41-0.06-1.31 0-2 0.07-0.69 0.8-1.25 1.62-1.25 0.83 0 1.29-0.34 1.03-0.75-0.26-0.41 0.08-1.59 0.75-2.62 1.07-1.65 1.52-1.72 3.72-0.55 2.24 1.18 2.42 1.14 1.75-0.38-0.48-1.1-0.04-2.59 1.25-4.2 1.1-1.38 2.9-2.72 4-3 1.1-0.28 1.99-1.29 1.98-2.25-0.01-0.96 1-2.86 2.25-4.23 1.25-1.36 2.31-2.71 2.35-3 0.05-0.28 0.61-1.76 1.25-3.27 0.65-1.51 2.97-3.88 5.17-5.25 2.2-1.38 4-2.95 4-3.5 0-0.55 0.9-1 2-1 1.1 0 2-0.45 2-1 0-0.55 0.75-1 1.67-1 0.91 0 1.36 0.23 1 0.5-0.37 0.28 0.7 1.74 2.37 3.25 1.67 1.51 3.25 2.53 3.51 2.25 0.25-0.28-1.86-3.2-4.7-6.5-2.83-3.3-5.76-7.01-6.5-8.25-0.74-1.24-1.91-2.27-2.6-2.3-0.69-0.02-2.03-1.03-2.99-2.25-0.96-1.21-2.87-3.55-4.25-5.2-1.38-1.65-2.51-3.56-2.51-4.25 0-0.69 0.45-1.36 0.99-1.5 0.65-0.16 0.65-1.53 0-4-0.54-2.06-1.44-3.75-1.99-3.75-0.57 0-0.71-0.96-0.32-2.25 0.49-1.61 0.35-2.04-0.5-1.5-0.65 0.41-1.78 0.19-2.51-0.5-0.73-0.69-1.18-1.81-1-2.5 0.18-0.69-0.68-1.66-1.92-2.16-1.24-0.5-3.15-2.09-4.25-3.54-1.1-1.44-2.67-2.6-3.5-2.57-0.82 0.03-2.06-0.52-2.74-1.21-0.98-1.01-0.88-1.63 0.5-3.05 0.96-0.98 1.29-1.79 0.74-1.8-0.55 0-1.67 0.71-2.5 1.58-0.82 0.87-2.29 1.57-3.25 1.54-0.96-0.02-1.86-0.54-2-1.15-0.14-0.62-1.44-1.18-2.9-1.25-1.49-0.08-2.37-0.57-2-1.12 0.39-0.59-0.04-0.69-1.1-0.25-0.96 0.4-1.75 0.39-1.76-0.02 0-0.41 0.67-1.76 1.5-3 1.12-1.67 1.19-2.25 0.26-2.27q-1.21-0.02 0.25-0.87c1.29-0.73 1.25-0.94-0.25-1.48-0.96-0.35-1.53-1.08-1.25-1.63 0.28-0.55-0.06-1.01-0.75-1.02-0.91-0.01-1.07-1.19-0.59-4.25 0.36-2.33 0.47-4.57 0.25-4.98-0.23-0.41 0.49-0.98 1.59-1.25 1.74-0.44 1.87-0.88 1-3.5-0.83-2.5-0.62-3.54 1.24-6.25 1.24-1.79 2.14-3.81 2-4.5-0.13-0.69 0.32-1.3 1.01-1.35 0.69-0.06 2.97-0.17 5.07-0.25 2.5-0.1 4.13-0.75 4.75-1.9 0.51-0.96 0.82-2.07 0.68-2.46-0.14-0.38-2.16-0.83-4.5-1-3.08-0.21-5.15-1.12-7.5-3.29-2.46-2.28-3.16-3.68-2.9-5.75 0.27-2.08-0.16-2.93-1.75-3.5-1.32-0.47-2.2-1.76-2.36-3.47-0.26-2.58-0.34-2.63-1.75-0.85zm-45.51 109.07c-0.31 0.96-1.11 1.26-2.23 0.83-1.66-0.64-1.66-0.57-0.01 1.25 1.66 1.83 1.65 2.03-0.25 4.17-1.22 1.38-1.5 2.23-0.74 2.21 1-0.04 1 0.21 0 1.25-0.75 0.77-0.95 2.04-0.5 3.14 0.6 1.48 0.39 1.74-1 1.25-0.96-0.33-1.75-0.15-1.75 0.4 0 0.55 0.9 2.8 2 5 1.1 2.2 2.56 3.85 3.25 3.66 0.69-0.18 1.6-1.87 2.04-3.75 0.43-1.87 0.77-4.65 0.75-6.16-0.02-1.51 0.3-2.75 0.71-2.75 0.41-0.01 0.64-2.03 0.5-4.5-0.14-2.5 0.19-4.5 0.75-4.5 0.55 0 0.33-0.67-0.5-1.5-0.83-0.83-1.74-1.5-2.02-1.5-0.29 0-0.74 0.67-1 1.5zm41.3 5.25c0.33 2.07 0.64 2.38 1.24 1.25 0.45-0.82 0.62-2.06 0.39-2.75-0.22-0.69-0.78-1.25-1.24-1.25-0.46 0-0.63 1.24-0.39 2.75zm-28.36 7.25c-0.23 1.1-1.09 2-1.92 2-0.82 0-1.5 0.45-1.5 1 0 0.55 0.01 1.34 0.01 1.75 0.01 0.41 0.57 0.79 1.25 0.85 0.68 0.05 1.92 0.37 2.74 0.71 0.83 0.34 2.15 2.1 2.94 3.9 0.8 1.81 2.37 4.11 3.5 5.11 2 1.77 2.09 1.76 3.06-0.26 0.78-1.64 0.51-2.73-1.25-5.07-1.24-1.65-2.36-4.12-2.5-5.49-0.14-1.38-0.59-2.5-1-2.5-0.41 0-0.53-0.9-0.25-2 0.4-1.61 0-2-2.08-2-1.77 0-2.71 0.63-3 2zm75.92 9c3.59 3.18 5.4 5.46 4.94 6.25-0.4 0.69-0.84 1.93-0.98 2.75-0.15 0.82-1.56 2.85-3.14 4.5-1.58 1.65-3.16 3.79-3.52 4.75-0.35 0.96-1.88 2.21-3.39 2.78-1.51 0.56-3.43 0.8-4.25 0.52-0.97-0.33-1.5 0.13-1.5 1.31 0 1 0.56 2.56 1.25 3.48 0.69 0.91 1.7 1.44 2.25 1.16 0.55-0.28 2.13 0.18 3.5 1 1.38 0.82 2.51 1.16 2.52 0.75 0.01-0.41-0.56-1.32-1.25-2.02-1.01-1-1.01-1.26-0.02-1.25 0.69 0.01 1.47-0.88 1.75-1.98 0.28-1.1 1.61-2.56 2.96-3.25 1.35-0.69 2.25-1.59 2-2-0.25-0.41 0.02-0.75 0.61-0.75 0.59 0 1.72-0.68 2.5-1.5 0.79-0.82 1.42-2.74 1.4-4.25-0.01-1.51 0.32-3.13 0.75-3.6 0.43-0.46 0.88-1.36 1.01-2 0.13-0.63 0.47-2.39 0.75-3.9 0.45-2.4 0.21-2.75-1.98-2.75-1.73 0-2.49 0.54-2.46 1.75 0.03 1.28-1.17 0.61-4.5-2.5-2.5-2.34-5.06-4.25-5.7-4.25-0.65 0 1.38 2.25 4.5 5zm30.03 42.89c-0.4 0.48-2.11 1.17-3.8 1.52-1.69 0.35-5.43 2.2-8.32 4.12-3.47 2.29-4.83 3.71-4 4.19 0.69 0.39 2.38 0.56 3.75 0.37 1.38-0.19 4.75-1.71 7.5-3.38 2.75-1.66 5.57-3.74 6.27-4.62 0.69-0.87 1.26-1.93 1.25-2.34-0.01-0.41-0.45-0.75-0.97-0.75-0.52 0-1.28 0.4-1.68 0.89zm-75.39 20.3c-0.42 2.03-1.04 2.29-4.98 2.18-2.47-0.07-7.87-0.89-12-1.8-4.12-0.92-7.72-1.4-8-1.07-0.28 0.33 0 1.37 0.61 2.3 0.62 0.94 2.64 2 4.5 2.38 1.87 0.37 6.54 0.96 10.39 1.32 3.85 0.36 7.79 1.07 8.75 1.58 0.96 0.5 1.75 1.82 1.75 2.92 0 1.52 0.42 1.82 1.72 1.25 1.38-0.6 1.58-0.39 1 1-0.4 0.98-0.28 1.75 0.28 1.75 0.55 0 0.99-1.69 0.97-3.75-0.03-3.58 0.05-3.67 1.75-2.03 0.98 0.95 2.23 1.76 2.78 1.8 0.55 0.04 0.33-0.65-0.5-1.52-1.36-1.44-1.03-1.59 3.5-1.55 2.75 0.02 6.69-0.41 8.75-0.96 2.06-0.54 3.97-1.67 4.25-2.49 0.43-1.29-0.97-1.43-10-1-7.78 0.37-10.69 0.18-11.25-0.75-0.41-0.69-1.43-1.84-2.27-2.56-1.29-1.11-1.59-0.96-2 1z"/>
			<path id="Path 4" fill-rule="evenodd" class="s4" d="m79.55 85.5c0.27 0.9-0.65 2.08-2.3 2.96-2.15 1.13-3.03 1.19-4.02 0.25-0.99-0.95-1.26-0.94-1.25 0.04 0.01 0.69 0.92 1.7 2.02 2.25 1.14 0.57 1.79 1.64 1.5 2.5-0.3 0.89 0.11 1.5 1 1.5 0.83 0 2.29 0.27 3.25 0.59 1.12 0.38 0.85-0.15-0.75-1.47q-2.52-2.09-1-2.08c0.83 0 2.74-1.24 4.25-2.77 2.2-2.22 2.5-3.02 1.5-4.04-0.69-0.69-2.02-1.26-2.95-1.25-1.05 0.01-1.53 0.6-1.25 1.52zm-7.05 35.46c-1.49 0.61-1.94 1.62-1.75 3.93 0.19 2.38-0.1 2.99-1.25 2.61-0.92-0.31-1.31-0.02-1 0.75 0.27 0.69 0.72 2.04 1 3 0.27 0.96 1.06 1.74 1.75 1.73 0.69 0 1.73-0.34 2.32-0.75 0.59-0.4 1.45-1.63 1.91-2.73l0.83-2c0.71 3.1 2.33 5.28 4.05 6.84 1.73 1.56 3.03 3.25 2.89 3.75-0.14 0.5 0.2 0.91 0.75 0.91 0.55 0 1-0.45 1-1 0-0.55 0.45-0.78 1-0.5 0.55 0.28 0.78 0.95 0.5 1.5-0.28 0.55-0.05 1 0.5 1 0.55 0 0.78 0.45 0.5 1-0.28 0.55-0.05 1 0.5 1 0.55 0 1.04 0.79 1.08 1.75 0.04 0.96 0.27 1.19 0.5 0.5 0.23-0.69 1.09-1.25 1.92-1.25 0.83 0 1.5-0.68 1.5-1.5 0-0.82 0.22-2.18 0.5-3 0.3-0.89-0.11-1.5-1-1.5-1.05 0-1.42-0.88-1.25-2.9 0.15-1.71-0.37-3.32-1.25-3.91-0.83-0.55-2.07-0.71-2.78-0.35-0.7 0.36-1.04 1.45-0.75 2.41 0.29 0.96 0.08 1.75-0.47 1.75-0.55 0-1.22-0.9-1.5-2-0.28-1.1-1.29-2.01-2.25-2.03-1.34-0.03-1.11-0.49 1-2 1.51-1.08 2.75-2.42 2.75-2.97 0-0.55-1.24-0.11-2.75 0.97-1.51 1.09-3.06 1.65-3.45 1.25-0.38-0.39-0.5-1.28-0.25-1.97 0.25-0.69-0.56-2.14-1.8-3.22-1.24-1.08-2.47-1.95-2.75-1.93-0.28 0.01-1.4 0.4-2.5 0.86zm23.5 5.04c0 1.65 0.45 3 1 3 0.55 0 1-1.35 1-3 0-1.65-0.45-3-1-3-0.55 0-1 1.35-1 3zm-29.83 11c-0.06 2.12-0.92 4.29-2.17 5.5-1.14 1.1-2.06 2.45-2.05 3 0.01 0.55 0.56 0.44 1.23-0.25 0.67-0.69 1.58-1.25 2.02-1.25 0.44 0 0.86 2.59 0.94 5.75 0.07 3.16 0.3 4.74 0.5 3.5 0.2-1.24 0.92-2.24 1.61-2.23 0.99 0.01 0.99-0.25-0.02-1.25-0.69-0.7-1.26-2.62-1.26-4.27 0-1.65 0.57-3.58 1.26-4.29 0.94-0.96 0.97-1.48 0.12-2-0.63-0.39-1.36-1.84-1.61-3.21-0.36-1.95-0.49-1.73-0.57 1zm88.83 2c0 3.6 0.25 4 2.5 4 1.6 0 2.61-0.63 2.81-1.75 0.17-0.96-0.17-2.78-0.75-4.03-0.58-1.25-1.85-2.26-2.81-2.25-1.37 0.02-1.75 0.9-1.75 4.03zm-77.67 22.25c0.85 1.24 1.24 2.93 0.88 3.75-0.4 0.89-0.27 1.22 0.31 0.8 0.54-0.38 2.33-0.03 3.98 0.78 1.65 0.82 3.45 1.47 4 1.47 0.55-0.01-1.03-2.06-3.5-4.55-2.47-2.49-5.11-4.52-5.85-4.51-1.08 0.01-1.05 0.46 0.18 2.26zm58.62 22.78c0.03 0.53-1.3 0.97-2.95 0.97-2.6 0-3.07 0.43-3.56 3.25-0.31 1.79-0.31 3.36 0 3.5 0.31 0.14 1.35-0.45 2.31-1.31 1.6-1.42 1.95-1.35 4.03 0.75 1.95 1.98 2.27 2.06 2.25 0.56-0.02-0.96-0.48-1.97-1.03-2.25-0.55-0.28-1-0.95-1-1.5 0-0.55 0.68-1.68 1.5-2.5 1.33-1.33 1.33-1.55-0.05-1.97-0.85-0.26-1.52-0.03-1.5 0.5zm19.34 13.73c-2.31 1.51-4.23 3.08-4.25 3.49-0.02 0.41 0.86 0.75 1.96 0.75 1.1 0 3.8-0.9 6-2 2.2-1.1 3.85-2.56 3.67-3.25-0.19-0.69-0.97-1.36-1.75-1.49-0.78-0.13-3.31 0.99-5.63 2.5z"/>
			<path id="Path 5" fill-rule="evenodd" class="s5" d="m138.02 26.75c0 0.41-2.13 1.1-4.75 1.54-2.63 0.43-5.57 1.55-6.55 2.5-0.98 0.94-1.79 2.16-1.79 2.71 0 0.55 0.81 0.23 1.79-0.71 0.98-0.95 3.8-2.11 6.28-2.58 2.47-0.48 5.85-1.6 7.5-2.5l3-1.63c-4.26-0.06-5.49 0.26-5.48 0.67zm-64.43 70.75c-0.32 1.38-1.04 2.5-1.59 2.5-0.55 0-0.78 0.45-0.5 1 0.28 0.55 0.1 1.56-0.4 2.25-0.57 0.8-0.39 1.7 0.5 2.5 1.15 1.03 1.76 0.71 3.4-1.75 1.1-1.65 1.81-4.01 1.57-5.25-0.23-1.24-0.45-2.59-0.5-3-0.04-0.41-0.48-0.75-0.98-0.75-0.5 0-1.18 1.13-1.5 2.5zm21.38 15.75c0.02 0.96-0.68 1.75-1.54 1.75-0.87 0-2.11 0.56-2.78 1.25-0.66 0.69-1.14 1.7-1.06 2.25 0.07 0.55 0.42 2.46 0.77 4.25l0.64 3.25c5.04-2.58 7.06-3.93 7.75-4.66 0.9-0.97 0.94-1.55 0.14-2.09-0.61-0.41-0.87-1.42-0.57-2.25 0.29-0.83-0.35-2.4-1.43-3.5-1.76-1.8-1.95-1.83-1.92-0.25zm58.1 16.75q0.93 2.99 2.16 2.25c0.87-0.53 1.02-0.24 0.5 1-0.53 1.28-0.26 1.75 1.02 1.74 1.28 0 1.75-0.81 1.75-3.02 0-1.67-0.68-3.46-1.5-3.98-0.82-0.53-2.25-0.97-3.18-0.97-1.4-0.02-1.52 0.47-0.75 2.98zm-95.64 14.72c-0.79 0.16-1.21 0.96-0.93 1.78 0.27 0.82 0.5 2.18 0.5 3q0 1.5 2.5 1.25c1.38-0.14 2.5-0.81 2.5-1.5 0-0.69 0.67-1.03 1.5-0.75 0.82 0.28 1.5 0.16 1.49-0.25 0-0.41-1.38-1.44-3.07-2.28-1.69-0.83-3.71-1.4-4.49-1.25zm27.8 2.16c-0.13 0.61 0.22 1.34 0.77 1.62 0.55 0.28 1.01 1.06 1.03 1.75 0.02 0.8-0.6 0.62-1.75-0.5-0.98-0.97-2.19-1.45-2.7-1.09-0.5 0.37-0.84 1.5-0.75 2.51 0.09 1.01-0.62 2.06-1.58 2.34-0.96 0.28-1.38 0.84-0.92 1.25 0.46 0.41 1.14 0.75 1.5 0.76 0.37 0 1.23 0.34 1.92 0.75 0.69 0.4 1.25 0.28 1.25-0.27 0-0.55 1.01-0.92 2.25-0.82 1.24 0.09 2.81 0.54 3.5 1 0.74 0.48 2.07 0.2 3.25-0.68 1.1-0.82 1.55-1.72 1-2-0.55-0.28-1.01-0.16-1.03 0.25-0.02 0.41-0.52-0.15-1.11-1.25-0.79-1.46-0.78-2.14 0.05-2.5 0.63-0.28 0.91-1.29 0.62-2.25-0.29-0.96-1.21-1.75-2.03-1.75-0.83 0-1.65 0.56-1.84 1.25-0.26 0.97-0.66 0.94-1.76-0.12q-1.44-1.38-1.67-0.25zm14.89 12.04c-0.07 1.14 0.56 2.42 1.39 2.83 0.83 0.41 1.84 0.39 2.25-0.05 0.41-0.44 0.29-1.52-0.26-2.4-0.55-0.87-1.51-1.79-2.13-2.03-0.63-0.24-1.19 0.5-1.25 1.65zm34.55 10.16c-1.03 0.56-1.48 1.69-1.17 2.92 0.28 1.1 1.18 2 2 2 0.82 0 1.5 0.45 1.5 1 0 0.55 0.45 0.78 1 0.5 0.55-0.28 1.1-1.57 1.23-2.88 0.13-1.31-0.47-2.85-1.33-3.42-0.99-0.66-2.18-0.71-3.23-0.12zm-8.7 11.67c-0.02 0.41 0.88 1.65 2 2.75 1.12 1.1 2.26 1.66 2.54 1.25 0.27-0.41-0.07-1.54-0.76-2.5-0.69-0.96-1.81-1.86-2.5-2-0.69-0.14-1.26 0.09-1.28 0.5zm-22.95 6c-0.01 1.24-0.47 2.03-1.02 1.75-0.55-0.28-1.14 0.29-1.32 1.25-0.17 0.96 0.01 2.87 0.4 4.25 0.7 2.42 0.72 2.41 0.84-0.5 0.08-2.32 0.33-2.66 1.08-1.5 0.83 1.28 0.97 1.25 0.98-0.25 0.01-0.96 0.69-1.75 1.52-1.75 0.83 0 1.5 0.89 1.5 2 0 1.11 0.67 2 1.5 2 0.82 0 1.55-0.79 1.62-1.75 0.06-0.96 0.06-2.54 0-3.5-0.07-0.96 0.44-1.78 1.13-1.82 0.69-0.04 0.35-0.42-0.75-0.85-1.15-0.45-2.76-0.31-3.78 0.32-1.38 0.85-2 0.76-2.74-0.4-0.76-1.21-0.95-1.06-0.96 0.75zm-56.02 7.25c0 0.55 1.91 1.97 4.25 3.16 2.34 1.19 4.81 2.76 5.5 3.5 0.69 0.74 1.06 1.45 0.83 1.59-0.23 0.14 1.01 0.33 2.75 0.44 1.74 0.1 6.4 1.23 10.34 2.5 6.7 2.16 7.21 2.2 7.75 0.56 0.45-1.35 0.01-1.75-1.92-1.75-1.37 0-2.5-0.34-2.5-0.75 0-0.41-0.79-0.85-1.75-0.96-0.96-0.12-3.55-0.35-5.75-0.52-2.51-0.19-3.91-0.76-3.75-1.54 0.16-0.77-0.5-1.04-1.75-0.73-1.1 0.28-2 0.05-2-0.5 0-0.55-2.14-2.14-4.75-3.53-2.61-1.39-5.31-2.52-6-2.5-0.69 0.02-1.25 0.48-1.25 1.03zm97.75 9c-2.06 1.1-4.65 2-5.75 2-1.1 0-2 0.45-2 1 0 0.55-0.68 1-1.5 1-0.82 0-1.69-0.56-1.92-1.25-0.23-0.69-0.46-0.46-0.5 0.5-0.05 1.05-1.18 2.02-2.83 2.41l-2.75 0.66c4.22 0.96 6.25 0.92 7.23 0.53 0.97-0.39 5.49-1.98 10.04-3.53 4.55-1.55 8.26-3.16 8.25-3.57-0.01-0.41-0.7-0.97-1.52-1.25-0.82-0.28-1.84-0.5-2.25-0.5-0.41-0.01-2.44 0.89-4.5 2z"/>
			<path id="Path 6" fill-rule="evenodd" class="s6" d="m69.44 27.08c-0.24 0.51 0.35 1.14 1.31 1.41 0.96 0.27 2.02 0.38 2.35 0.25 0.32-0.13 1.37 0.44 2.33 1.26 1.53 1.33 1.83 1.33 2.62 0 0.49-0.82 0.56-1.59 0.17-1.69-0.4-0.11-2.43-0.63-4.53-1.17-2.29-0.59-3.98-0.61-4.25-0.06zm28.03 81.34c-1.08 0.78-1.61 1.79-1.17 2.25 0.44 0.46 1.52 0.38 2.4-0.17 0.87-0.55 1.69-1.56 1.81-2.25 0.12-0.69-0.07-1.25-0.42-1.25-0.35 0-1.53 0.64-2.62 1.42zm3.53 5.58c0 1.1 0.45 2 1 2 0.55 0 1-0.9 1-2 0-1.1-0.45-2-1-2-0.55 0-1 0.9-1 2zm-33.4 0.25c0.22 0.41-0.5 0.97-1.6 1.25-1.1 0.28-2 0.95-2 1.5 0 0.55-0.22 1.67-0.5 2.5-0.3 0.89 0.11 1.5 1 1.5 0.83 0 2.42-1.24 3.53-2.75 1.29-1.73 2.05-2.2 2.07-1.25q0.05 1.46 0.9-0.5c0.47-1.1 0.78-2.22 0.68-2.5-0.1-0.28-1.15-0.5-2.33-0.5-1.19 0-1.98 0.34-1.75 0.75zm35.43 82l0.02 3.25c-4.55-4.48-5.32-4.74-6.26-3.75-0.92 0.96-0.92 1.25 0.01 1.25 0.66 0 2.34 1.01 3.72 2.25 1.39 1.24 2.52 2.7 2.5 3.25-0.01 0.55 1.33 2.24 2.98 3.75 1.65 1.51 3.79 2.74 4.75 2.73 1.48-0.01 1.52-0.15 0.25-0.92-1.22-0.73-1.27-1.2-0.25-2.48 1-1.26 1-1.66 0-2-0.93-0.32-0.87-0.7 0.25-1.49 1.27-0.9 1.2-1.06-0.45-1.07-1.5-0.02-1.69-0.31-0.82-1.27 0.85-0.93 0.84-1.84-0.05-3.57-0.8-1.57-1.75-2.14-2.93-1.75-0.96 0.31-1.75 0.12-1.75-0.43 0-0.55-0.45-1-1-1-0.55 0-0.99 1.46-0.97 3.25z"/>
			<path id="Path 7" fill-rule="evenodd" class="s7" d="m88.72 126.37c-1.06 0.82-1.15 1.4-0.34 2.13 0.62 0.56 2.13 0.89 3.37 0.75 1.24-0.14 2.26-0.59 2.26-1.01 0.01-0.42-0.85-1.26-1.91-1.88-1.43-0.84-2.31-0.83-3.38 0.01zm14.33 7.63c-0.17 2.27-0.26 2.32-0.95 0.5-0.72-1.87-0.81-1.84-1.42 0.5-0.36 1.37-0.66 3.51-0.67 4.75 0 1.24 0.44 2.25 0.99 2.25 0.55 0 1.9-0.9 3-2 1.1-1.1 2-2.68 2-3.5 0-0.82-0.45-1.5-1-1.5-0.55 0-1.17-0.79-1.38-1.75q-0.39-1.69-0.57 0.75zm-43.47 16.5c-0.47 0.3-0.57 1.66-0.22 3.02 0.35 1.37 1.09 2.48 1.64 2.48 0.55 0 1.24-0.79 1.53-1.75 0.29-0.96-0.07-2.32-0.79-3.02-0.72-0.7-1.7-1.03-2.16-0.73zm13.42 6.92c1.44 1.42 3.14 2.22 4 1.88 1.19-0.46 0.98-0.96-1-2.42-1.38-1.01-3.17-1.86-4-1.88-1.05-0.04-0.74 0.7 1 2.42zm128.67 5.49c-2.57 3.35-4.67 6.43-4.67 6.84 0 0.41 0.45 0.86 1 1 0.55 0.14 0.9-0.09 0.79-0.5-0.12-0.41 1-2.66 2.5-5 1.49-2.34 3.16-4.25 3.71-4.25 0.55 0 1.12-0.74 1.27-1.64 0.15-0.91 0.22-1.85 0.17-2.1-0.06-0.25-2.2 2.29-4.77 5.65zm-53.06 10.3c-1.5 1.13-4.66 4.02-7.02 6.42-2.53 2.58-3.68 4.37-2.81 4.37 0.81 0 2.83-1.35 4.48-3 1.65-1.65 3.39-3 3.87-3 0.48 0 0.53-0.54 0.12-1.21-0.55-0.89-0.08-1.02 1.75-0.48 1.87 0.55 2.33 0.41 1.81-0.54-0.38-0.7-0.15-1.83 0.5-2.5 0.66-0.68 0.93-1.43 0.61-1.67-0.32-0.24-1.81 0.49-3.31 1.61zm32.06 10.1c-0.21 0.66-0.22 1.75-0.02 2.44 0.19 0.69 0.8 1.25 1.35 1.25 0.55 0 1.23-0.9 1.5-2 0.31-1.23-0.07-2.17-0.98-2.44-0.81-0.24-1.65 0.1-1.85 0.75zm-59.56 2.94c-1.07 1.85-1.06 2.38 0.05 2.97 0.82 0.45 1.44 0.15 1.59-0.75 0.16-0.93 0.98-1.29 2.25-0.97 1.1 0.28 2 0.28 2 0 0-0.28-0.67-1.18-1.5-2-0.82-0.82-1.86-1.5-2.3-1.5-0.44 0-1.38 1.01-2.09 2.25zm2.72 26.83c-0.94 0.63-0.52 0.89 1.42 0.9 1.51 0.01 2.73-0.16 2.7-0.37-0.02-0.22-0.66-0.63-1.41-0.91-0.76-0.28-1.97-0.11-2.71 0.38z"/>
			<path id="Path 8" fill-rule="evenodd" class="s8" d="m99 78.75c0 0.41-1.08 0.81-2.39 0.89-1.31 0.07-3.34 1.09-4.5 2.25-1.16 1.16-1.89 2.78-1.61 3.61 0.44 1.33 0.67 1.33 2.07 0 0.87-0.83 1.99-1.5 2.5-1.5 0.51 0 1.04 0.73 1.18 1.63 0.17 1.13 1.09 0.43 2.95-2.25 1.49-2.13 2.5-4.22 2.25-4.63-0.25-0.41-0.9-0.75-1.45-0.75-0.55 0-1 0.34-1 0.75zm-16 9.75c0 0.28 0.67 1.17 1.5 2 0.83 0.83 2.17 1.5 3 1.5 0.83 0 1.51-0.34 1.53-0.75 0.01-0.41-1.11-1.31-2.5-2-1.39-0.69-2.75-1.25-3.03-1.25-0.28 0-0.5 0.22-0.5 0.5zm-10.76 7.45c0.69 1.08 1.48 1.76 1.76 1.51 0.28-0.24 0.16-1.12-0.25-1.95-0.41-0.83-1.21-1.51-1.76-1.51-0.61 0-0.5 0.8 0.25 1.95zm113.22 83.34c-0.58 0.66-1.47 1.89-1.98 2.71-0.55 0.89 0.38 0.59 2.29-0.75 1.78-1.24 3.23-2.47 3.23-2.75 0-0.28-0.56-0.48-1.25-0.46-0.69 0.02-1.72 0.58-2.29 1.25zm-155.09 5.45c1.17 1.73 2.58 3.01 3.13 2.85 0.55-0.16 2.58 0.77 4.5 2.07 1.93 1.29 3.95 2.35 4.5 2.35 0.55-0.01-0.83-1.7-3.06-3.76-2.23-2.06-4.93-4.04-6-4.39-1.07-0.35-2.67-1-3.57-1.45-1.27-0.63-1.16-0.11 0.5 2.33zm94.35 9.77c-1.77 1.9-3.56 3.23-3.97 2.97-0.41-0.26-0.96-0.14-1.22 0.27-0.25 0.41 2 3.11 5 6 3.01 2.89 5.47 4.8 5.47 4.25 0-0.55-1.53-2.46-3.4-4.25l-3.4-3.25c4.78-5.94 4.83-5.96 5.31-3.75 0.28 1.26 1.26 2.27 2.24 2.29 1.45 0.04 1.54-0.21 0.5-1.5-0.69-0.84-1.02-2.44-0.75-3.54 0.31-1.25-0.07-2.18-1.03-2.47-0.87-0.27-2.9 1-4.75 2.98z"/>
			<path id="Path 9" fill-rule="evenodd" class="s9" d="m75.86 102.54c-0.75 0.85-0.91 1.55-0.36 1.55 0.55 0 1.58-0.7 2.28-1.55 0.7-0.84 0.86-1.54 0.36-1.54-0.5 0-1.53 0.7-2.28 1.54zm80.14 23.96c0 0.82 0.56 1.5 1.25 1.5 0.69 0 1.29-0.68 1.33-1.5 0.05-0.83-0.51-1.5-1.25-1.5-0.73 0-1.33 0.67-1.33 1.5zm-93.44 1.71c-0.38 1.26-0.42 2.51-0.1 2.79 0.33 0.27 0.59-0.18 0.58-1-0.01-1.33 0.1-1.33 0.96 0 0.53 0.82 1.04 3.75 1.13 6.5l0.15 5c1.36-7.56 1.46-7.67 1.61-5 0.15 2.64 0.32 2.8 1.39 1.29 0.67-0.94 1.78-1.73 2.47-1.75 0.69-0.02 1.25-0.72 1.25-1.54 0-0.82-0.45-1.5-1-1.5-0.55 0-1.01-0.56-1.03-1.25-0.02-0.69-0.58-1.97-1.25-2.85-0.67-0.88-2.18-1.91-3.35-2.29-1.66-0.54-2.27-0.2-2.81 1.6zm12.84 1.05c-0.49 0.97-0.56 2.09-0.15 2.5 0.41 0.41 1 0.51 1.3 0.24 0.3-0.28 0.37-1.4 0.16-2.5-0.37-1.85-0.47-1.87-1.31-0.24zm2.15 4.74c-0.3 0.55 0.24 1.66 1.2 2.47 0.96 0.81 2.09 1.48 2.5 1.5 0.41 0.02 0.75-0.42 0.75-0.97 0-0.55-0.67-1.23-1.5-1.5-0.83-0.28-1.33-0.95-1.12-1.5 0.21-0.55 0-1-0.45-1-0.46 0-1.08 0.45-1.38 1zm16.47 12.25c0.01 0.69 1.13 2.26 2.5 3.5 1.36 1.24 2.48 2.81 2.49 3.5 0.01 0.78 1.15 1.16 3 1 2.78-0.23 2.99-0.53 2.99-4.25 0-2.33-0.42-3.79-1-3.5-0.55 0.27-1 0.05-1-0.5 0-0.55-0.6-0.89-1.33-0.75-0.74 0.14-2.11 0.93-3.05 1.75-1.53 1.35-1.7 1.32-1.66-0.25 0.02-0.96-0.63-1.75-1.46-1.75-0.83 0-1.49 0.56-1.48 1.25zm-25.22 6.47c0.11 0.7 0.65 1.5 1.2 1.78 0.55 0.27 1-0.18 1-1 0-0.82 0.45-1.28 1-1 0.55 0.27 1.22 0.05 1.5-0.5 0.28-0.57-0.67-0.91-2.2-0.78-1.55 0.12-2.62 0.76-2.5 1.5zm87.03 12.74c0.14 0.57-0.46 1.72-1.33 2.54-0.87 0.82-1.57 1.84-1.54 2.25 0.02 0.41 1.28-0.03 2.79-0.98 1.51-0.95 3.08-2.18 3.48-2.75 0.41-0.56 0.65-1.26 0.54-1.56-0.11-0.29-1.1-0.53-2.2-0.53-1.1 0-1.88 0.46-1.74 1.03zm-71.78 15.21c-0.8 0.27-1.36 0.91-1.25 1.41 0.11 0.51 0.99 0.81 1.95 0.67q1.75-0.25 3.5 3.5c0.96 2.06 2.31 3.75 3 3.75 0.72 0 1.25-1.27 1.25-3 0-1.64-0.34-2.99-0.75-2.99-0.41-0.01-0.74 0.55-0.74 1.24 0.01 0.69-1.23-0.17-2.75-1.91-1.55-1.78-3.39-2.95-4.21-2.67z"/>
			<path id="Path 10" fill-rule="evenodd" class="s10" d="m84.14 111.06c-0.71 1.2-0.76 1.94-0.14 1.94 0.55 0 1.16-0.56 1.36-1.25q0.38-1.23 3.03 1.25c1.46 1.37 2.66 2.05 2.67 1.5 0-0.55-0.8-1.72-1.78-2.6-0.98-0.88-2.28-1.86-2.89-2.18-0.62-0.33-1.63 0.28-2.25 1.34zm3.63 45.17c0.69 0.7 1.26 1.61 1.25 2.02-0.01 0.41-0.92 0.97-2.02 1.25-1.81 0.45-1.61 0.96 2.25 5.5 2.34 2.75 4.47 5.02 4.75 5.04 0.28 0.03 1.17-0.69 2-1.6 1.34-1.48 1.29-1.81-0.5-3.12-1.1-0.8-1.85-1.99-1.67-2.64 0.19-0.65-0.04-0.85-0.5-0.44-0.46 0.41-1.4 0.19-2.09-0.5-1.02-1-1.02-1.49 0-2.52 1.02-1.04 0.87-1.56-0.74-2.72-1.1-0.79-2.45-1.46-3-1.48-0.55-0.03-0.43 0.52 0.27 1.21zm31.76 9.04c-1.08 0.66-2.31 1.66-2.73 2.22-0.42 0.56-0.79 1.46-0.81 2.01-0.03 0.55 0.3 0.69 0.73 0.31 0.43-0.38 2.06-0.16 3.62 0.5 2.35 0.99 2.98 0.93 3.66-0.31 0.47-0.86 0.33-2.47-0.34-3.78-0.64-1.25-1.38-2.25-1.66-2.22-0.28 0.03-1.39 0.6-2.47 1.27zm-9.51 13.48c-0.02 2.95 0.26 3.25 2.98 3.25 1.92 0 2.87-0.45 2.65-1.25-0.2-0.69-1.21-1.7-2.25-2.25-1.05-0.55-2.23-1.45-2.63-2-0.41-0.55-0.75 0.46-0.75 2.25zm32.1 5.5c-0.09 1.36-0.73 1.63-2.87 1.19-2.51-0.52-2.58-0.46-0.75 0.66 1.1 0.68 2.22 1.65 2.5 2.17 0.28 0.52 0.96 0.78 1.53 0.59 0.61-0.21 0.76-1.59 0.37-3.36-0.36-1.65-0.72-2.21-0.78-1.25z"/>
			<path id="Path 11" fill-rule="evenodd" class="s11" d="m62.05 106.66c-0.8 0.28-1.36 0.81-1.25 1.17 0.11 0.37 1.55 1.23 3.2 1.92 1.65 0.69 3.34 1 3.75 0.7 0.41-0.3-0.28-0.86-1.55-1.25-1.26-0.38-2.15-1.26-1.98-1.95 0.18-0.69 0.08-1.21-0.2-1.17-0.29 0.04-1.17 0.3-1.97 0.58zm13.87 53.34c-0.08 0.28-0.32 1.74-0.53 3.25-0.22 1.51 0.06 2.97 0.61 3.25 0.55 0.28 1.43-0.29 1.97-1.25 0.67-1.23 0.53-2.35-0.47-3.75-0.79-1.1-1.5-1.78-1.58-1.5zm40.37 20.48c-0.43 0.81-0.68 2.83-0.54 4.5 0.2 2.44 0.58 2.88 2 2.3 1.39-0.58 1.6-0.38 1 1-0.41 0.94-0.41 1.71 0 1.7 0.41-0.02 1.54-1.59 2.5-3.5 0.96-1.92 1.41-3.69 1-3.95-0.41-0.26-1.54-0.04-2.5 0.5-1.15 0.63-1.92 0.62-2.25-0.03-0.27-0.55-0.05-1.22 0.5-1.5 0.55-0.28 1-0.95 1-1.5 0-0.55-0.43-1-0.96-1-0.53 0-1.31 0.66-1.75 1.48zm-12.29 10.52c0 0.55 0.22 1.68 0.5 2.5 0.28 0.82 0.95 1.28 1.5 1 0.55-0.28 1-1.4 1-2.5 0-1.11-0.67-2-1.5-2-0.82 0-1.5 0.45-1.5 1zm2.98 33c0.03 3.44 0.01 3.46-1.47 1.25-0.84-1.25-2.07-1.97-2.76-1.62-0.95 0.47-0.89 0.82 0.25 1.46 0.96 0.54 1.62 2.76 1.84 6.13 0.19 2.9 0.74 5.96 1.22 6.78 0.63 1.07 0.89 0.49 0.92-2 0.02-1.93 0.37-5.19 0.78-7.24 0.41-2.06 1.35-3.86 2.1-4 0.97-0.19 0.75-0.83-0.78-2.26l-2.15-2z"/>
			<path id="Path 12" fill-rule="evenodd" class="s12" d="m76.24 96.25c0.26 0.69 1.32 1.11 2.36 0.94 1.05-0.17 2.23 0.28 2.63 1 0.56 1 0.8 0.92 0.97-0.32 0.15-1.02-0.7-1.87-2.23-2.24-1.36-0.33-2.86-0.61-3.34-0.62-0.47 0-0.65 0.55-0.39 1.24zm5.86 40.69c-0.05 0.58-1 0.84-2.1 0.56-1.68-0.42-1.89-0.15-1.31 1.75 0.38 1.24 1.96 4.16 3.5 6.5 1.55 2.34 3.26 4.47 3.81 4.75 0.55 0.28 0.99 0.16 0.97-0.25-0.01-0.41-0.8-1.55-1.75-2.53-1.12-1.16-1.28-1.77-0.47-1.75 0.69 0.02 1.23-0.76 1.21-1.72-0.04-1.56 0.12-1.59 1.54-0.25 1.42 1.34 1.58 1.31 1.54-0.25-0.02-0.96-0.49-1.75-1.04-1.75-0.55 0-0.78-0.45-0.5-1 0.28-0.55 0.05-1-0.5-1-0.55 0-0.78-0.45-0.5-1 0.28-0.55 0.05-1.22-0.5-1.5-0.55-0.28-1-0.05-1 0.5 0 0.55-0.45 1-1 1-0.55 0-0.78-0.45-0.5-1 0.28-0.55 0.1-1.25-0.4-1.56-0.49-0.31-0.94-0.08-1 0.5zm-7.14 10.79c-0.75 0.24-1.26 0.96-1.13 1.6 0.13 0.64 1.34 1.96 2.7 2.92 1.36 0.96 3.15 1.53 3.97 1.25 0.83-0.28 1.5-0.84 1.51-1.25 0-0.41-0.78-1.44-1.75-2.28-0.97-0.84-2.25-1.79-2.85-2.11-0.6-0.32-1.7-0.38-2.45-0.13zm56.95 19.02c-0.74 1.51-1.47 3.09-1.63 3.5-0.15 0.41 0.96 0.32 2.47-0.21 1.51-0.53 3.09-1.66 3.5-2.5 0.41-0.85 0.53-1.99 0.25-2.54-0.28-0.55-1.12-1-1.87-1-0.76 0-1.98 1.24-2.72 2.75zm-19.82 17.68c-0.05 1.41-0.54 2.57-1.09 2.57-0.55 0-1 0.68-1 1.5 0 0.82 0.67 1.5 1.5 1.5 0.83 0 1.5-0.45 1.5-1 0-0.55 0.67-1 1.5-1 1.03 0 1.42-0.86 1.25-2.74-0.15-1.62-0.93-2.88-1.91-3.07-1.19-0.24-1.69 0.4-1.75 2.24z"/>
			<path id="Path 13" fill-rule="evenodd" class="s13" d="m86.55 85c-0.3 0.55-0.21 1.03 0.2 1.07 0.41 0.04-0.15 0.42-1.25 0.85-1.83 0.71-1.72 0.92 1.25 2.43 2.87 1.46 3.37 1.48 4.25 0.15 0.69-1.03 0.61-2.12-0.25-3.5-0.69-1.11-1.79-2.01-2.45-2-0.66 0-1.45 0.45-1.75 1zm6.39-0.03c-1.14 0.75-1.19 1.21-0.21 2.24 0.68 0.71 1.49 1.07 1.8 0.79 0.32-0.28 0.41-1.28 0.21-2.24-0.26-1.26-0.75-1.47-1.8-0.79zm-7.89 35.69c-0.8 0.28-1.38 1.03-1.29 1.67 0.11 0.86 0.56 0.84 1.7-0.08 0.97-0.79 1.73-0.88 2.04-0.25 0.28 0.55 0.95 1 1.5 1 0.55 0 1-0.67 1-1.5 0-0.83-0.79-1.46-1.75-1.42-0.96 0.04-2.4 0.3-3.2 0.58zm12.92 3.34c0 2.01 0.25 2.25 1.26 1.25 1.03-1.01 1.03-1.49 0-2.5-1.01-1-1.26-0.76-1.26 1.25zm-50.03 5.78c0.01 0.4 0.6 1.29 1.29 1.99 0.7 0.69 1.61 1.26 2.02 1.25 0.41-0.01 0.41-0.71 0-1.56-0.41-0.84-1.33-1.73-2.05-1.97-0.71-0.23-1.28-0.1-1.26 0.29zm31.77 45.13c-0.39 0.6 0.3 2.19 1.54 3.53 1.48 1.6 2.94 2.26 4.25 1.91 1.26-0.33 1.91-1.23 1.75-2.44-0.16-1.25-1.03-1.9-2.5-1.89-1.24 0.01-2.72-0.48-3.29-1.09-0.74-0.79-1.24-0.8-1.75-0.02zm16.4 0.35c-0.6 0.68-0.76 1.63-0.35 2.11 0.41 0.49-0.26 0.6-1.51 0.25-1.46-0.4-2.27-0.18-2.29 0.63-0.03 0.69 0.67 1.93 1.54 2.75 0.87 0.82 1.57 2.06 1.54 2.75-0.02 0.69 0.41 1.03 0.96 0.75 0.55-0.28 1.68 0.18 2.5 1 0.83 0.82 1.5 1.84 1.5 2.25 0 0.41 0.68 0.75 1.5 0.75 0.83 0 1.51-0.9 1.52-2 0.01-1.66 0.18-1.74 0.98-0.5 0.72 1.12 0.97 0.54 0.98-2.25 0.01-2.06-0.43-3.75-0.98-3.75-0.55 0-1.19 0.56-1.42 1.25-0.32 0.93-0.68 0.86-1.42-0.25-0.54-0.82-0.69-2.11-0.32-2.85 0.5-1.03 0.19-1.15-1.31-0.5-1.64 0.7-1.86 0.55-1.25-0.9 0.39-0.96 0.31-1.97-0.18-2.24-0.5-0.27-1.39 0.07-1.99 0.75zm16.01 0.38c-0.1 0.47 0.62 1.65 1.6 2.62 1.7 1.68 1.86 1.66 3.44-0.25 1.57-1.89 1.55-2.01-0.25-2.01-1.05 0-2.51-0.27-3.25-0.61-0.74-0.33-1.43-0.22-1.54 0.25zm-13.13 40.66c-1.87 1.81-3.33 3.72-3.24 4.25 0.09 0.52 0.86 0.39 1.71-0.3 0.97-0.79 1.73-0.88 2.04-0.25 0.28 0.55 0.95 1 1.5 1 0.55 0 0.95-0.34 0.88-0.75-0.06-0.41-0.03-0.97 0.07-1.25 0.1-0.28 0.33-1.74 0.51-3.25 0.18-1.51 0.23-2.75 0.12-2.75-0.1 0-1.72 1.48-3.59 3.3z"/>
			<path id="Path 14" fill-rule="evenodd" class="s14" d="m112.42 69.8c-0.51 0.39-1.03 1.26-1.17 1.95-0.16 0.78 0.79 1.21 2.5 1.14 1.51-0.07 2.86 0.38 3 1 0.14 0.61 0.7 1.11 1.25 1.11 0.55 0 0.89-1.01 0.75-2.25-0.18-1.57-0.85-2.2-2.25-2.08-1.1 0.1-2.26-0.21-2.58-0.69-0.32-0.48-0.99-0.56-1.5-0.18zm-42.87 32.2c-0.3 0.55-0.21 1.21 0.2 1.48 0.41 0.26 1.1 0.15 1.53-0.25 0.43-0.4 0.76-1.07 0.75-1.48-0.02-0.41-0.46-0.75-0.98-0.75-0.52 0-1.2 0.45-1.5 1zm11.87 6.37c-1.06 0.62-2.24 1.58-2.63 2.13-0.39 0.55-0.39 1.35 0 1.78 0.39 0.42 1.95 0.31 3.46-0.25 1.51-0.57 2.8-1.68 2.85-2.47 0.06-0.79-0.32-1.64-0.83-1.88-0.51-0.25-1.8 0.07-2.85 0.69zm0.13 20.63c-0.3 0.55 0.12 1 0.95 1 0.82 0 1.72 0.9 2 2 0.28 1.1 0.95 2 1.5 2 0.55 0 0.77-0.79 0.5-1.75-0.29-1 0.25-2.27 1.25-2.97 1.52-1.05 1.25-1.22-1.95-1.25-2.04-0.02-3.95 0.42-4.25 0.97zm2.48 27.25c0.01 0.69-0.32 0.91-0.75 0.5-0.43-0.41-1.46 0.2-2.28 1.35-1.38 1.93-1.29 2.3 1.28 4.75 2.35 2.23 2.92 2.41 3.69 1.15 0.56-0.91 0.54-1.99-0.03-2.75q-0.96-1.26 0.56-1.75c1.14-0.38 1.26-0.98 0.5-2.5-0.55-1.1-1.45-2-2-2-0.55 0-0.99 0.56-0.97 1.25zm25.52 43.75c-0.3 0.55 0.24 1.01 1.2 1.02 1.5 0.01 1.53 0.15 0.25 1-1.33 0.87-1.33 1.09 0 1.96 0.82 0.55 2.51 1 3.75 1 1.24 0.01 2.25-0.43 2.25-0.98 0-0.55-0.68-1-1.5-1-0.83 0-1.72-0.9-2-2-0.28-1.1-1.15-2-1.95-2-0.8 0-1.7 0.45-2 1zm-4.55 40.5c0 0.82 0.45 1.5 1 1.5 0.55 0 1-0.68 1-1.5 0-0.82-0.45-1.5-1-1.5-0.55 0-1 0.68-1 1.5z"/>
			<path id="Path 15" fill-rule="evenodd" class="s15" d="m142.42 83.62c-1.69 1.4-3.66 2.21-4.67 1.91-0.96-0.29-1.9 0.03-2.08 0.72-0.18 0.69 0.16 1.74 0.75 2.33 0.59 0.59 1.88 1.04 2.87 1 0.98-0.04 3.01-1.77 4.5-3.84 1.49-2.07 2.45-3.95 2.13-4.16-0.32-0.22-1.9 0.7-3.5 2.04zm-74.76 40.09c-0.37 0.98-0.1 2.37 0.59 3.08 0.69 0.72 1.59 1.28 2 1.25 0.41-0.02 0.64-1.24 0.5-2.71-0.14-1.46-0.74-2.83-1.34-3.04-0.6-0.2-1.39 0.43-1.75 1.42zm-4.64 6.54c-0.01 0.96-0.47 1.75-1.02 1.75-0.55 0-0.93 0.79-0.84 1.75 0.09 0.96-0.19 3.32-0.63 5.25-0.43 1.93-0.51 4.29-0.16 5.25 0.56 1.56 0.85 1.47 2.63-0.75 1.38-1.72 2-3.98 1.98-7.25 0-2.61-0.45-5.43-0.98-6.25-0.83-1.28-0.97-1.25-0.98 0.25zm0.34 15c-0.41 0.69-0.21 1.36 0.45 1.5 0.66 0.14 1.19 0.7 1.19 1.25 0 0.55-0.67 0.77-1.5 0.5-0.89-0.3-1.5 0.11-1.5 1 0 0.82 0.23 2.18 0.5 3 0.28 0.82 1.18 1.27 2 1 1.04-0.35 1.5-1.89 1.5-5 0-2.48-0.43-4.5-0.95-4.5-0.52 0-1.28 0.56-1.69 1.25zm29.94 4.25c0.93 1.37 1.48 2.95 1.2 3.5-0.27 0.55 0.4 1.9 1.5 3 1.1 1.1 2.34 2.02 2.75 2.04 0.41 0.03 1.43-0.66 2.25-1.52 0.83-0.86 1.16-1.78 0.75-2.04-0.41-0.27-1.65-0.03-2.75 0.52q-2 1-2 0c0-0.55 0.45-1 1-1 0.55 0 1.02-0.34 1.04-0.75 0.02-0.41-1.22-2-2.75-3.54-1.54-1.53-3.22-2.77-3.74-2.75-0.53 0.02-0.19 1.16 0.75 2.54zm-34.05 29.98c0.41 0.84 0.75 1.74 0.75 2.02 0 0.27 0.45 0.5 1 0.5 0.55 0 1.23-0.68 1.5-1.5 0.32-0.96-0.31-1.69-1.75-2.02-1.76-0.41-2.09-0.19-1.5 1zm71.3 0.52c-0.3 0.55-0.32 1.9-0.05 3q0.5 2 3 2c1.38 0 2.49-0.34 2.47-0.75-0.02-0.41-0.92-1.76-2-3-1.08-1.24-2.17-2.25-2.42-2.25-0.25 0-0.7 0.45-1 1zm-18.57 13.18c-1.36 0.53-2.59 1.15-2.73 1.39-0.14 0.24 0.2 1.33 0.75 2.43 0.55 1.1 1.56 2.01 2.25 2.03 0.69 0.02 2.15-0.89 3.25-2.03 1.78-1.83 1.83-2.21 0.48-3.42-1.1-0.99-2.19-1.1-4-0.4z"/>
			<path id="Path 16" fill-rule="evenodd" class="s16" d="m81.27 90.25c-0.52 0.69-0.69 2.29-0.36 3.56 0.32 1.27 1.04 2.23 1.59 2.13 0.55-0.1 1.9-0.79 3-1.54 1.99-1.36 1.98-1.39-0.25-3.39-1.24-1.1-2.42-2.01-2.64-2.01-0.21 0-0.81 0.56-1.34 1.25zm-4.87 26.77c-1.52 1.62-1.65 2.28-0.65 3.25 0.99 0.97 1.55 0.81 2.72-0.77 0.8-1.1 1.48-2.56 1.5-3.25 0.02-0.69-0.35-1.25-0.82-1.25-0.47 0-1.71 0.91-2.75 2.02zm-26 0.92c-1.87 1.92-1.84 1.95 2.35 2.25 2.33 0.17 4.26 0.09 4.28-0.19 0.02-0.28-0.77-1.28-1.75-2.22-0.98-0.95-2.05-1.74-2.38-1.75-0.33-0.02-1.46 0.84-2.5 1.91zm48.1 7.73c-0.46 0.36-0.78 2.05-0.71 3.75 0.07 1.69 0.84 3.76 1.71 4.58 1.41 1.33 1.59 1.33 1.61 0 0.02-0.97 0.34-0.79 0.89 0.5 0.72 1.68 0.87 1.47 0.93-1.25 0.04-1.79-0.38-3.47-0.93-3.75-0.55-0.28-1-1.4-1-2.5 0-1.1-0.37-2-0.83-2-0.46 0-1.21 0.3-1.67 0.67zm-29.58 14.96c-1.56 1.06-2.14 2.4-2.03 4.68 0.09 1.75 0.94 3.94 1.89 4.87 0.94 0.92 2.51 1.48 3.47 1.25 0.96-0.24 1.77-0.99 1.79-1.68 0.02-0.69 0.73-1.7 1.57-2.25 1.23-0.8 1.31-1.5 0.43-3.5-0.61-1.38-1.96-3.03-3.02-3.68-1.51-0.94-2.36-0.87-4.1 0.31zm57.71 44.32c-0.35 0.58-0.41 1.5-0.13 2.05 0.28 0.55 1.18 1 2 1 0.83 0 1.39-0.74 1.25-1.67-0.14-0.91-0.76-1.84-1.37-2.05-0.62-0.21-1.41 0.09-1.75 0.67zm9.81 2.3c-0.36 0.69-0.15 1.7 0.47 2.25 0.62 0.55 1.13 1.68 1.13 2.5 0.01 1.12-0.56 0.95-2.26-0.7-1.47-1.42-2.77-1.92-3.65-1.39-0.75 0.45-1.42 2.34-1.5 4.2-0.13 3.27 0.01 3.4 3.87 3.65 2.2 0.14 4.56-0.08 5.25-0.5 0.68-0.42 1.53-2.37 1.88-4.34 0.46-2.6 0.19-4.03-1-5.25-0.9-0.92-2.06-1.67-2.58-1.67-0.52 0-1.25 0.56-1.61 1.25z"/>
			<path id="Path 17" fill-rule="evenodd" class="s17" d="m89.72 107.44c-1.51 0.58-2.73 1.28-2.7 1.56 0.02 0.28 1.15 1.74 2.51 3.25 1.36 1.51 3.14 2.75 3.97 2.75 0.83 0 1.5-0.67 1.5-1.5 0-0.93 0.47-1.21 1.23-0.75 0.87 0.53 1.02 0.24 0.5-1-0.4-0.96-0.79-2.37-0.85-3.13-0.07-0.76-0.86-1.58-1.77-1.82-0.9-0.23-2.88 0.05-4.39 0.64zm-4.72 4.56c0 0.55-0.67 0.78-1.5 0.5-0.83-0.28-1.95-0.28-2.5 0-0.63 0.31-0.54 1.07 0.25 2.04 0.69 0.85 0.8 1.52 0.25 1.49-0.55-0.03-1.75 1.19-2.67 2.71-1.62 2.67-1.6 2.84 0.84 5.26 2.15 2.14 2.79 2.32 4.42 1.25 1.05-0.69 1.92-0.91 1.93-0.5 0.01 0.41-0.53 1.31-1.2 2-0.96 0.98-0.91 1.25 0.23 1.26 0.8 0 2.46-0.67 3.7-1.5 1.24-0.83 2.25-2.18 2.25-3.01 0-0.89-0.61-1.3-1.5-1-0.83 0.28-1.72 0.05-2-0.5-0.31-0.63-1.07-0.54-2.04 0.25-1.24 1-1.54 1-1.5 0 0.02-0.69 1.39-1.7 3.04-2.25 1.65-0.55 2.78-1.45 2.5-2-0.28-0.55 0.06-1.16 0.75-1.36q1.23-0.38-1.25-3.03c-1.37-1.46-2.84-2.65-3.25-2.64-0.41 0.02-0.75 0.48-0.75 1.03zm-17.83 7.13c-1.19 1.58-2.17 3.32-2.17 3.87 0 0.55 0.56 0.78 1.25 0.5 0.69-0.27 2.04-0.72 3-1 1.3-0.37 1.62-1.21 1.24-3.25-0.29-1.51-0.66-2.8-0.84-2.87-0.17-0.06-1.29 1.17-2.48 2.75zm25.83 5.77c-1.28 0.75-1.16 1.23 0.77 3.24l2.27 2.36c-0.03-5.04-0.38-6.49-0.79-6.48-0.41 0-1.42 0.4-2.25 0.88zm-3 5.1c0 0.55 0.34 1 0.75 1.01 0.41 0.01 0.64 1.36 0.5 3-0.14 1.64 0.2 2.99 0.75 2.99 0.55 0 1.67 0.22 2.5 0.5 1.1 0.37 1.49-0.24 1.47-2.25-0.02-1.51-0.58-3.52-1.25-4.46-0.67-0.94-2.01-1.73-2.97-1.75-0.96-0.02-1.75 0.41-1.75 0.96zm-16.45 22c-0.3 0.55-1 0.78-1.55 0.5-0.55-0.28-0.99 0.06-0.98 0.75 0.02 0.69 1.59 2.04 3.5 3 3.05 1.53 3.57 1.56 4.23 0.25 0.47-0.94 0.01-2.26-1.25-3.53-1.1-1.12-2.32-2.02-2.7-2-0.39 0.02-0.95 0.48-1.25 1.03z"/>
			<path id="Path 18" fill-rule="evenodd" class="s18" d="m67.15 95.1c-3.97 3.78-5.15 5.59-5.15 7.9q0 3 1.5 3c0.82 0 1.27 0.56 1 1.25-0.28 0.69 0.62 1.81 2 2.5 2.07 1.04 2.76 0.99 4-0.25 0.82-0.82 1.5-1.95 1.5-2.5 0-0.55-0.73-1.79-1.62-2.75-1.5-1.62-1.47-1.88 0.5-3.5 1.17-0.96 2.13-2.31 2.14-3 0.01-0.69-0.56-1.83-1.25-2.54-1.03-1.04-0.82-1.23 1.12-1 1.31 0.16 2.55-0.27 2.75-0.96 0.2-0.69-0.47-1.65-1.49-2.15-1.47-0.71-2.89 0.1-7 4zm75.21 3.4c0.37 1.43 0.21 2.5-0.36 2.5-0.55 0-1 0.56-1 1.25 0 0.69 1.13 2.6 2.5 4.25 1.38 1.65 3.29 3.95 4.25 5.12 0.96 1.16 2.65 2.29 3.75 2.5 1.51 0.29 2.08-0.23 2.31-2.12 0.19-1.55-0.49-3.26-1.78-4.5-1.15-1.1-2.08-3.01-2.06-4.25 0.02-1.24-0.42-3.37-0.97-4.75-0.77-1.92-1.72-2.5-4.14-2.5-2.85 0-3.08 0.23-2.5 2.5zm-65.06-0.73c-0.75 0.46-0.87 1.29-0.33 2.23 0.54 0.94 1.44 1.22 2.44 0.75 0.88-0.41 1.59-1.42 1.59-2.25 0-0.82-0.56-1.49-1.25-1.48-0.69 0-1.79 0.34-2.45 0.75zm-20.4 13.98l-3.12 2.75c5.59 4.26 7.89 5.28 8.72 5 0.83-0.28 1.5-1.17 1.5-2 0-0.82 0.9-1.72 2-2 1.43-0.36 1.8-1 1.31-2.25-0.38-0.96-1.39-2.3-2.25-2.97-0.86-0.67-2.34-1.23-3.29-1.25-0.96-0.02-3.14 1.21-4.87 2.72zm-7.1 13c-0.24 3.03 0.08 5.2 0.91 6 0.71 0.69 1.29 1.7 1.29 2.25 0 0.55 1.01 1.54 2.25 2.2 2.03 1.08 2.18 1.01 1.5-0.75-0.46-1.18-0.26-2.46 0.5-3.24 1-1.04 1-1.29 0-1.25-0.76 0.02-0.47-0.84 0.75-2.21l2.01-2.25c-4.27-4.3-6.26-5.53-7.17-5.52-1.25 0.01-1.75 1.18-2.04 4.77zm98.3 6.42c-2.26 1.56-4.1 3.51-4.1 4.33 0 0.82 2.14 3.51 4.75 5.96 3.97 3.73 4.85 4.18 5.36 2.75 0.34-0.94 0.79-4.02 1-6.85 0.22-2.83 0.05-4.97-0.36-4.75-0.41 0.21-1.16-0.66-1.65-1.94l-0.91-2.32zm-5.97 7.25c-0.07 0.32-0.24 0.92-0.37 1.35-0.14 0.42-1.27 1.88-2.52 3.25-1.25 1.36-2.27 3.15-2.26 3.97 0.01 0.83-1.33 2.29-2.98 3.25-1.65 0.97-3.44 2.65-3.99 3.75-0.82 1.63-0.63 2.1 1 2.5 1.14 0.29 2.11 1.47 2.25 2.75 0.19 1.68 0.82 2.19 2.5 2 1.61-0.18 2.11 0.18 1.75 1.25-0.28 0.83 0.06 1.75 0.75 2.04 0.68 0.3 2.48 0.08 4-0.5 1.51-0.57 3.05-1.82 3.41-2.79 0.37-0.96 2.17-3.43 4-5.5 1.84-2.06 3.11-4.2 2.84-4.75-0.28-0.55 0.06-1.27 0.75-1.6 0.85-0.41 0.13-1.72-2.25-4.09-1.93-1.91-4.68-4.37-6.13-5.46-1.44-1.09-2.68-1.73-2.75-1.42zm-84.39 23.82c0.2 6.19 0.57 12.27 0.82 13.5 0.24 1.24 1.41 2.59 2.58 3 1.98 0.7 2.02 0.88 0.5 2.5-0.91 0.98-1.63 3.41-1.63 5.5 0 2.07-0.45 5.22-1 7-0.55 1.79-0.78 3.93-0.5 4.75 0.3 0.93 1.27 1.31 2.5 1 1.17-0.29 1.89-0.03 1.75 0.63-0.14 0.62 0.42 1.38 1.25 1.7q1.49 0.57 0.75-0.63c-0.42-0.66-0.64-1.21-0.5-1.22 0.13-0.02 1.93 0.66 4 1.5 2.06 0.84 4.2 1.3 4.75 1.02 0.55-0.27 0.99-0.16 0.99 0.25-0.01 0.42 2.7 1.43 6.02 2.25l6.04 1.5c4.61-5.81 6.4-7.5 6.95-7.5 0.55 0 0.77 0.68 0.5 1.5-0.28 0.83-0.05 1.5 0.5 1.5 0.55 0 1.02 0.57 1.04 1.25 0.03 0.89-0.42 0.82-1.55-0.25-1.43-1.34-1.81-1.28-3.58 0.5-1.98 2-1.97 2.01 1.8 3.82 2.1 1 5.34 1.67 7.29 1.5 3.2-0.29 3.52-0.61 3.79-3.82 0.23-2.72-0.27-4-2.25-5.75-1.4-1.23-2.88-2.25-3.29-2.25-0.42 0-0.75-0.63-0.75-1.4 0-0.77 0.45-1.16 1-0.85 0.55 0.3 2.02 1.5 3.27 2.65l2.28 2.1c-0.28-8.63-0.35-8.75-1.05-6-0.55 2.16-0.82 2.44-0.97 1-0.11-1.1-0.27-2.96-0.37-4.13-0.09-1.17-1.06-3.08-2.16-4.23-1.1-1.16-2.34-1.88-2.75-1.62-0.42 0.27-0.77-0.08-0.79-0.77-0.01-0.68-0.93-2.37-2.04-3.75-1.88-2.33-2.17-2.4-4.45-1-1.35 0.83-2.19 1.73-1.88 2 0.32 0.28 1.1 0.51 1.74 0.53 0.64 0.01 1.05 0.8 0.92 1.75-0.14 0.95 0.2 1.95 0.75 2.22 0.55 0.28 1 0.05 1-0.5 0-0.55 0.33-0.99 0.75-0.99 0.41 0 0.75 1.35 0.75 3 0 1.72-0.53 2.99-1.25 2.99-0.69 0-2.04-1.68-3-3.75q-1.75-3.75-3.5-3.5-1.75 0.25-1.75-1.75c0-1.1-0.34-1.99-0.75-1.98-0.42 0.02-2.67-1.56-5-3.5-2.34-1.93-4.48-3.4-4.75-3.27-0.27 0.14-2.26-1.32-4.43-3.25-2.74-2.44-3.65-3.87-3-4.75 0.66-0.89 0.22-1.39-1.57-1.75-1.45-0.29-2.31-1.03-2.05-1.75 0.24-0.68 0.13-1.63-0.25-2.09-0.39-0.47-0.82-1.82-0.96-3-0.15-1.19-0.49-2.72-0.75-3.41-0.27-0.68-0.86-1.25-1.31-1.25-0.45 0-0.65 5.07-0.45 11.25zm9.25-9c-0.01 1.8-0.2 1.95-0.94 0.75-0.51-0.82-1.21-1.27-1.55-1-0.34 0.28-0.37 1.52-0.06 2.75 0.31 1.24 1.47 2.48 2.57 2.75 1.1 0.28 2.01 1.07 2.04 1.75 0.02 0.69 0.81 1.8 1.75 2.47 0.94 0.67 2.38 1.23 3.21 1.25 0.82 0.01 1.5-0.85 1.5-1.91 0-1.06-1.46-3.42-3.24-5.24-1.78-1.83-3.24-3.88-3.25-4.57-0.01-0.68-0.46-1.25-1.01-1.25-0.55 0-1.01 1.02-1.02 2.25zm57 4.94c-0.12 0.72-0.17 1.65-0.1 2.06 0.06 0.42-0.56 0.75-1.38 0.75-0.83 0-1.73 0.68-2 1.5-0.28 0.83 0.06 1.49 0.75 1.46 0.68-0.02 1.92 1.35 2.75 3.04 0.82 1.7 1.87 3.06 2.32 3.04 0.45-0.02 1.46-0.71 2.25-1.54 0.78-0.82 1.43-1.95 1.43-2.5 0-0.55 1.01-1.38 2.25-1.85l2.25-0.84c-3.49-1.79-4.5-2.98-4.5-3.81 0-0.84-0.76-1.4-1.75-1.27-0.97 0.12-2.27-0.13-2.9-0.56-0.67-0.46-1.24-0.24-1.37 0.52zm27.46 3.48c0.26 0.46-0.63 1.4-1.98 2.08-1.36 0.69-2.69 2.15-2.96 3.25-0.28 1.1-1.07 2-1.75 1.99-0.99-0.02-0.99 0.24 0.01 1.25 0.7 0.69 1.26 1.6 1.25 2.01-0.01 0.42-0.91 0.3-2.01-0.25q-2-1-2.5 0c-0.28 0.55-0.95 0.78-1.5 0.5-0.55-0.27-1.23 0.52-1.5 1.75-0.42 1.86-0.67 1.99-1.46 0.75-0.83-1.29-1.17-1.22-2.47 0.5-0.83 1.1-1.51 2.23-1.51 2.5 0 0.28 0.89 1.52 1.97 2.75 1.08 1.24 2.3 2.25 2.7 2.25 0.4 0 2.32-1.68 4.26-3.75 1.95-2.06 5.11-4.86 7.03-6.23 1.91-1.36 4.26-3.38 5.22-4.5 0.96-1.11 1.63-3.14 1.5-4.52-0.17-1.74-0.93-2.6-2.51-2.83-1.25-0.18-2.06 0.04-1.79 0.5zm-4.04 15.33c0.33 0.55 0.15 1-0.4 1-0.55 0-1.9 0.9-3 2-1.71 1.71-1.85 2.52-1 5.5 0.55 1.93 0.66 3.49 0.25 3.48-0.42-0.01-1.09 1.79-1.5 4-0.57 3.07-1.29 4.13-3 4.47-1.24 0.24-3.94 0.69-6 1-3.3 0.49-3.81 0.28-4.24-1.7-0.48-2.2-0.54-2.19-2.9 0.75l-2.42 3c6.59 6.54 7.31 6.84 8.93 5.75 1.09-0.72 1.88-0.82 1.88-0.25 0 0.55 0.67 1 1.5 1 0.82 0 1.5-0.45 1.5-1 0-0.55 0.9-1 2-1 1.1 0 3.51-0.78 5.37-1.75 3.29-1.71 3.39-1.94 4.5-11 0.62-5.08 1.13-10.82 1.13-12.75 0-2.54-0.44-3.5-1.6-3.5-0.89 0-1.34 0.45-1 1zm-7.71 6.75c-0.36 0.42-0.43 1.09-0.17 1.5 0.26 0.42 0.93 0.75 1.48 0.75 0.55 0 1-0.67 1-1.5 0-0.82-0.38-1.5-0.84-1.5-0.45 0-1.12 0.34-1.47 0.75zm-16.7 5c-0.01 0.42-1.81 0.64-4 0.5-2.2-0.13-3.98 0.09-3.97 0.5 0.02 0.42 0.69 1.54 1.5 2.5 0.93 1.1 2.05 1.47 3 1 1.18-0.58 1.38-0.3 0.89 1.25-0.35 1.1-0.25 2.32 0.23 2.71 0.47 0.39 2.54-1.07 4.61-3.25 2.06-2.17 3.75-4.41 3.75-4.96 0-0.55-1.35-1-3-1-1.65 0-3.01 0.34-3.01 0.75zm-7.53 10.09c-1 1-1.74 2.35-1.64 2.99 0.1 0.65 0.85 1.17 1.68 1.17 0.82 0 1.5 0.45 1.5 1 0 0.55-1.43 1.12-3.18 1.25-1.74 0.14-3.32 0.82-3.5 1.5-0.18 0.69 0.8 1.48 2.18 1.75 1.37 0.28 5.43 0.17 9.01-0.25 3.58-0.41 6.39-0.98 6.25-1.27-0.14-0.28-2.56-2.64-5.37-5.24-4.94-4.58-5.16-4.67-6.93-2.9zm-23.3 13.73c-0.4 0.89 0.33 2.45 1.84 3.96l2.5 2.49c4.27-4.27 5.17-5.8 4.75-6.14-0.41-0.34-2.48-0.88-4.59-1.19-2.82-0.43-4.02-0.19-4.5 0.88zm15.82 3.68c0.01 2.07-0.43 3.75-0.98 3.75-0.57 0-0.68-0.74-0.25-1.72 0.59-1.37 0.39-1.58-1-1-1.33 0.55-1.75 0.24-1.75-1.28 0-1.1-0.45-1.77-1-1.5-0.55 0.28-0.78 1.18-0.5 2 0.27 0.83 0.05 1.73-0.5 2-0.55 0.28-0.88 1.07-0.72 1.75 0.15 0.69 1.5 2.49 3 4l2.72 2.75-0.07-6.5c3.94 3.68 4.03 4.04 2.68 4.25-0.99 0.16-1.61 1.22-1.61 2.75 0 2.23 0.41 2.5 3.75 2.49 3.23-0.01 4.47-0.77 9-5.5 3.1-3.24 5.26-6.41 5.27-7.74 0.02-1.72-0.74-2.42-3.25-3.01-1.8-0.42-5.3-0.77-7.77-0.77l-4.5-0.02c3.45 3.53 4.47 5 4.49 5.55 0.03 0.55-1.55-0.57-3.49-2.5l-3.54-3.5z"/>
			<path id="Path 19" fill-rule="evenodd" class="s19" d="m0 34c0 26.31 0.28 34.1 1.25 34.42 1 0.34 1 0.44 0 0.5-0.99 0.06-1.25 18.09-1.25 86.58v86.5c101.7 0 105.02-0.11 105.35-1.75 0.19-0.96 0.02-4.22-0.38-7.25-0.39-3.03-0.55-5.84-0.34-6.25 0.2-0.41-0.3-0.97-1.13-1.25-0.82-0.28-1.28-0.84-1.02-1.25 0.27-0.41-0.41-1.65-1.5-2.75-1.25-1.26-2.53-1.72-3.48-1.25-0.94 0.47-1.49 0.28-1.47-0.5 0.02-0.69-0.89-2.15-2.03-3.25-1.14-1.1-2.05-2.79-2.03-3.75 0.02-1.44-0.86-1.75-4.97-1.75-3.4 0-5.88-0.64-7.75-1.99-1.51-1.09-6.46-3.12-11-4.5-4.54-1.38-9.04-2.21-10-1.85-0.96 0.36-1.41 0.36-1 0 0.41-0.36 0.19-1.25-0.5-1.96-0.69-0.72-4.85-3.27-9.25-5.67-4.4-2.39-9.12-5.12-10.5-6.05-1.37-0.93-2.95-1.56-3.5-1.4-0.55 0.17-2.12-1.11-3.5-2.84-2.22-2.8-2.28-3.06-0.5-2.32 1.1 0.46 3.01 1 4.25 1.21 1.24 0.2 2.25 0.82 2.25 1.37 0 0.55 2.25 2.57 5 4.5 2.75 1.93 5.56 3.34 6.25 3.14 0.69-0.2 3.19 0.81 5.56 2.25 3.49 2.12 4.53 2.37 5.5 1.31 0.73-0.8 1.15-4.28 1.08-9-0.06-4.24-0.64-14.67-1.3-23.2-0.65-8.53-1.29-16.4-1.43-17.5-0.13-1.1-0.89-3.48-1.7-5.29-0.8-1.81-1.91-3.26-2.46-3.23-0.55 0.04-2.35-1.31-4-2.98-1.65-1.67-2.55-3.05-2-3.05 0.55-0.01 2.24 1.12 3.75 2.52 1.51 1.39 2.74 1.97 2.74 1.28-0.01-0.69-1.25-2.21-2.75-3.38-2.25-1.75-2.51-2.38-1.46-3.5 0.72-0.78 1.16-3.16 1-5.53-0.22-3.31 0.25-4.75 2.29-7 1.42-1.56 4.34-4.33 6.5-6.15 3.33-2.81 3.89-3.83 3.68-6.75-0.22-3 0.42-4.06 5-8.31 4.76-4.42 5.11-5.03 3.75-6.55-1.34-1.49-1.32-1.66 0.25-1.62 0.96 0.02 1.97 0.71 2.25 1.54 0.44 1.33 0.83 1.33 3.5 0 1.9-0.95 2.82-2.05 2.5-3-0.28-0.83 0.06-1.49 0.75-1.47 0.69 0.02 2.94-1.78 5-4 2.06-2.22 4.2-3.81 4.75-3.53 0.55 0.28 1.56-0.59 2.25-1.93 0.69-1.33 1.81-2.23 2.5-2 0.69 0.24 1.25-0.24 1.25-1.07 0-0.83 0.22-1.5 0.5-1.5 0.28 0 1.36 0.56 2.42 1.25 1.46 0.95 2.23 0.97 3.25 0.08 0.93-0.81 1.33-3.98 1.33-10.59 0-5.74-0.46-9.98-1.17-10.83-0.64-0.78-0.98-3.1-0.75-5.16 0.31-2.8-0.07-4.19-1.51-5.5-1.06-0.96-2.52-2.23-3.25-2.81-0.73-0.58-1.54-1.11-1.82-1.18-0.28-0.06-1.85-0.65-3.5-1.29-1.65-0.65-4.8-1.33-7-1.51-2.2-0.19-5.35-0.85-7-1.47-1.65-0.62-3.11-1.1-3.25-1.06-0.14 0.04-1.6-0.61-3.25-1.43-1.65-0.83-3.9-1.5-5-1.5-1.1 0-2.34-0.53-2.75-1.18-0.53-0.83-0.15-1 1.25-0.54 1.1 0.36 3.58 0.91 5.5 1.23 1.93 0.32 5.97 1.19 9 1.94 3.03 0.74 7.86 1.28 10.75 1.2 2.89-0.08 5.25-0.38 5.25-0.65 0-0.27 1.35-1.06 3-1.75 1.94-0.81 3.55-2.57 4.56-5 0.86-2.06 1.42-4.78 1.25-6.03-0.17-1.26 0.49-3.06 1.47-4 1.7-1.64 1.78-1.58 1.75 1.03-0.02 1.91 0.61 2.98 2.07 3.5 1.59 0.57 2.02 1.42 1.75 3.5-0.26 2.01 0.44 3.51 2.65 5.66 2.29 2.24 3.94 2.93 7 2.94 2.2 0.01 4.68 0.13 5.5 0.27 0.83 0.15 3.87-0.16 6.77-0.68 2.89-0.52 5.25-1.28 5.25-1.69-0.01-0.41 1.22-0.73 2.73-0.71l2.75 0.04c-4.65 2.53-8.03 3.65-10.5 4.13-2.47 0.47-5.18 1.53-6 2.35-0.82 0.82-3.52 1.67-6 1.87-2.47 0.21-5.06 0.43-5.75 0.48-0.69 0.05-1.14 0.65-1.01 1.34 0.14 0.69-0.76 2.71-2 4.5-1.86 2.71-2.07 3.75-1.24 6.25 0.87 2.62 0.74 3.06-1 3.5-1.1 0.27-1.82 0.84-1.59 1.25 0.22 0.41 0.11 2.65-0.25 4.98-0.48 3.06-0.32 4.24 0.59 4.25 0.69 0.01 1.03 0.47 0.75 1.02-0.27 0.55 0.29 1.28 1.25 1.63 1.5 0.54 1.54 0.75 0.25 1.48q-1.46 0.85-0.25 0.87c0.93 0.02 0.86 0.6-0.26 2.27-0.83 1.24-1.5 2.59-1.5 3 0.01 0.41 1.14 0.08 2.51-0.75 1.38-0.83 2.5-1.05 2.5-0.5 0 0.55 1.01 0.89 2.25 0.75 1.68-0.19 2.31 0.32 2.5 2 0.14 1.24 0.59 2.27 1 2.29 0.41 0.03 1.43-0.67 2.25-1.54 0.83-0.87 1.95-1.58 2.5-1.58 0.55 0.01 0.22 0.82-0.74 1.8-1.38 1.42-1.48 2.04-0.5 3.05 0.68 0.69 1.92 1.24 2.74 1.21 0.83-0.03 2.49 1.2 3.69 2.73 1.21 1.54 3.8 3.35 5.75 4.04 3.26 1.14 3.85 1.04 7.06-1.25 1.93-1.38 3.51-2.16 3.53-1.75 0.02 0.41-1.56 2.89-3.5 5.5-3.4 4.58-3.47 4.82-1.78 6.76 0.97 1.11 2.98 2 4.5 2 2-0.01 3.02 0.67 3.75 2.49 0.55 1.37 0.99 3.51 0.97 4.75-0.02 1.24 0.92 3.15 2.09 4.25 1.67 1.57 2 2.75 1.55 5.5-0.51 3.18-0.02 4.15 5.41 10.5 3.28 3.85 5.74 7.22 5.47 7.5-0.27 0.28-1.62-0.51-2.99-1.75-1.38-1.24-2.68-1.91-2.89-1.5-0.22 0.41-0.28 2.32-0.14 4.25 0.14 1.93 0.72 4.4 1.29 5.5 0.68 1.29 0.72 2.89 0.11 4.5-0.51 1.37-0.69 3.29-0.4 4.25 0.31 1.03-0.09 1.96-0.97 2.25-0.82 0.28-1.27 0.95-1 1.5 0.28 0.55 0.05 1.22-0.5 1.5-0.55 0.28-1 2.07-1 4 0 1.93-0.52 3.61-1.16 3.75-0.77 0.16-0.51 1.22 0.75 3.06 1.05 1.55 2.47 2.56 3.16 2.25 0.69-0.31 1.24-0.22 1.23 0.19 0 0.41-0.34 1.21-0.75 1.77-0.4 0.57-2.08 1.87-3.73 2.91-1.65 1.04-3.43 2.6-3.95 3.48-0.52 0.87-1.1 3.62-1.28 6.09-0.19 2.47-0.77 7.76-1.3 11.75-0.54 3.99-0.97 7.93-0.97 8.75 0 0.82 0.56 1.51 1.25 1.52 0.69 0.01 3.28-1.25 5.75-2.81 2.48-1.56 7.2-4.46 10.5-6.44 3.3-1.98 7.35-3.92 9-4.32 1.65-0.39 3.79-1.33 4.75-2.08 1.11-0.87 1.5-2.01 1.06-3.12-0.57-1.45-0.44-1.54 0.75-0.5 1.18 1.03 1.8 0.81 3.44-1.25 1.1-1.38 2.68-2.51 3.5-2.51 0.94-0.01 0.29 1.11-1.75 3-1.79 1.66-3.25 3.69-3.25 4.51 0 0.82-0.68 1.5-1.5 1.5-0.82 0-1.5 0.45-1.5 1 0 0.55-2.7 2.57-6 4.5-3.3 1.93-6.79 3.48-7.75 3.46-0.96-0.03-2.26 0.53-2.89 1.25-0.62 0.71-3.1 2.18-5.5 3.26-2.4 1.09-4.58 2.27-4.86 2.64-0.27 0.36-4.1 1.88-8.5 3.38-4.4 1.5-8.68 2.96-9.5 3.26-0.82 0.29-2.62 0.47-4 0.38-1.37-0.09-3.18 0.3-4 0.86-1.33 0.9-1.33 1.12 0 1.99q1.5 0.99 0.25 1c-0.69 0.01-1.25 1.15-1.25 2.52 0 1.65-1.78 4.36-5.25 7.99-4.74 4.95-5.66 5.49-9.5 5.5l-4.25 0.01v12h101l0.09-84.5c-4.42 4.65-6.57 7.35-7.62 9-1.05 1.65-1.81 3.34-1.69 3.75 0.12 0.41-0.12 0.76-0.53 0.78-0.41 0.01-1.08-0.32-1.48-0.75-0.4-0.43 1.6-3.71 4.43-7.28 2.84-3.57 5.53-6.61 5.98-6.75 0.45-0.14 0.82-35.35 0.82-78.25v-78c-119.71 0-134.09 0.27-134.42 1.25-0.34 1-0.44 1-0.5 0-0.06-0.98-8.09-1.25-36.58-1.25h-36.5z"/>
			<path id="Path 20" fill-rule="evenodd" class="s0" d="m97 89.89c-1.29 0.73-1.25 0.94 0.25 1.48 0.96 0.35 1.75 1.08 1.75 1.63 0 0.55-0.58 1-1.3 1-0.71 0-2.3 0.79-3.52 1.75-1.86 1.47-1.97 1.87-0.7 2.5 0.84 0.41 1.3 1.42 1.02 2.25-0.39 1.18 0.18 1.4 2.75 1.04 1.79-0.25 4.07-1.27 5.06-2.25 1.58-1.56 1.93-1.6 2.74-0.29 0.78 1.27 0.92 1.24 0.93-0.25 0.01-0.96-0.65-1.97-1.48-2.25-0.83-0.28-1.5-1.17-1.5-2 0-0.83-0.67-1.72-1.5-2-0.83-0.28-1.5-1.17-1.5-2 0-0.83-0.34-1.49-0.75-1.48-0.41 0-1.42 0.4-2.25 0.87zm34.16 32.36c-0.09 2.06 0.29 3.97 0.84 4.25 0.55 0.28 1.7-0.06 2.54-0.75 0.85-0.69 1.54-1.92 1.54-2.75-0.01-1.17-0.46-1.06-2.02 0.5l-2.01 2-0.73-7zm-11.31 14.6c-1.67 1.3-1.99 2.03-1.1 2.49 0.69 0.36 2.26-0.17 3.5-1.18q2.25-1.85 1.1-2.5c-0.64-0.36-2.21 0.18-3.5 1.19zm-57.76 37.83c-0.05 0.45 3.4 4.04 7.66 7.98 5.56 5.13 8.17 6.93 9.25 6.36 1.28-0.67 1.23-0.92-0.32-1.66-1.67-0.79-1.69-0.98-0.21-2.36 0.89-0.82 1.61-1.95 1.61-2.5-0.01-0.55-0.93-0.21-2.05 0.75-1.95 1.68-2.17 1.64-5.58-1-1.95-1.51-3.54-2.97-3.53-3.25 0.01-0.28-0.53-1.22-1.2-2.1-0.67-0.88-2.19-1.93-3.38-2.32-1.18-0.39-2.2-0.35-2.25 0.1z"/>
			<path id="Path 21" fill-rule="evenodd" class="s1" d="m108.94 97.56c0.03 0.79 0.17 1.44 0.31 1.44 0.14 0 1.71 0.45 3.5 1q3.25 1 2.75 0c-0.28-0.55-0.09-1.56 0.42-2.25 0.69-0.94-0.08-1.3-3.07-1.44-2.9-0.13-3.96 0.2-3.91 1.25zm13.06 31.94c0 0.82 0.45 1.28 1 1 0.55-0.28 1 0.18 1 1 0 0.82 0.45 1.5 1 1.5 0.6 0 0.5-1.01-0.25-2.53-0.69-1.39-1.59-2.51-2-2.5-0.41 0.02-0.75 0.71-0.75 1.53zm15 2c0 0.82-0.45 1.28-1 1-0.55-0.28-1.45 0.18-2 1-0.55 0.82-0.78 2.18-0.5 3 0.28 0.82-0.29 1.94-1.25 2.47-1.6 0.89-1.58 0.98 0.25 1.04 1.1 0.05 2.56-0.62 3.25-1.47 0.69-0.84 1.03-1.99 0.75-2.54-0.28-0.55 0.2-1.56 1.04-2.25 0.85-0.69 1.53-1.81 1.5-2.5-0.02-0.69-0.49-1.25-1.04-1.25-0.55 0-1 0.68-1 1.5z"/>
			<path id="Path 22" fill-rule="evenodd" class="s2" d="m112.34 85.5c0.49 1.12 0.16 1.37-1.34 1-1.1-0.28-2-0.05-2 0.5 0 0.55 0.56 1 1.25 1.01 0.69 0 2.49 0.67 4 1.5 2.5 1.36 2.83 1.33 3.64-0.26 0.67-1.32 0.3-2.18-1.5-3.5-1.31-0.96-2.91-1.75-3.55-1.75-0.65 0-0.87 0.65-0.5 1.5zm3.45 12.09c-1.07 1.25-0.99 1.8 0.41 3.21 1.05 1.05 2.3 1.41 3.25 0.95 0.85-0.41 1.56-1.32 1.56-2.01 0.01-0.69-0.87-1.8-1.96-2.45-1.59-0.97-2.22-0.91-3.26 0.3zm0.21 9.35c-1.2 0.72-1.25 1.17-0.26 2.23 0.69 0.73 1.02 1.67 0.75 2.08-0.27 0.41-0.04 0.97 0.51 1.25 0.55 0.28 1.72-0.74 2.61-2.25 1.32-2.27 1.37-2.88 0.25-3.48-0.75-0.41-1.58-0.74-1.86-0.74-0.28 0-1.18 0.41-2 0.91z"/>
			<path id="Path 23" fill-rule="evenodd" class="s8" d="m113 80c0 0.55-0.67 0.78-1.5 0.5-1.02-0.34-1.39 0.06-1.16 1.25 0.19 0.96 1.21 1.91 2.25 2.11 1.05 0.19 2.55 0.87 3.33 1.5 1.18 0.94 1.31 0.74 0.75-1.11q-0.67-2.25 0.58-2.23c0.69 0.01 0.35-0.65-0.75-1.47-1.1-0.82-2.34-1.5-2.75-1.52-0.41-0.02-0.75 0.42-0.75 0.97zm-3.63 34.74c-0.39 0.32-0.63 2.32-0.54 4.43 0.09 2.11 0.62 3.83 1.17 3.83 0.55 0 1-1.35 1-3 0-1.65 0.45-3 1-3 0.55 0 0.98-0.4 0.95-0.89-0.02-0.49-0.68-1.14-1.46-1.43-0.78-0.3-1.73-0.27-2.12 0.06z"/>
			<path id="Path 24" fill-rule="evenodd" class="s9" d="m163 113c0 0.55-1.13 2.24-2.51 3.75-1.38 1.51-2.29 2.97-2.02 3.25 0.26 0.28 1.22-0.17 2.13-1 0.9-0.83 2.18-2.74 2.84-4.25 0.67-1.51 0.84-2.75 0.38-2.75-0.45 0-0.82 0.45-0.82 1zm-53.44 12.5c-0.45 1.1-0.45 3.57 0.01 5.5l0.83 3.5c0.57-4.65 0.56-7.13 0.36-8.5-0.35-2.32-0.44-2.36-1.2-0.5zm35.11-0.8c-0.33 0.44-0.02 1.7 0.71 2.8 1.22 1.85 1.37 1.87 1.97 0.25 0.37-1 0.07-2.2-0.71-2.8-0.74-0.58-1.63-0.69-1.97-0.25zm-28.67 3.18c-1.38 1.02-2.05 2.11-1.5 2.45 0.55 0.34 2.07-0.5 3.39-1.86 1.31-1.36 1.99-2.46 1.5-2.45-0.49 0.01-2.02 0.85-3.39 1.86zm2.64 16.59c-0.39 0.93 0.15 2.12 1.36 3.03 1.82 1.36 2.09 1.32 3-0.5 0.55-1.1 0.89-2.17 0.75-2.38-0.14-0.2-1.2-0.67-2.36-1.03q-2.11-0.66-2.75 0.88zm-5.59 1.19c-0.8 0.28-1.37 1.26-1.27 2.17 0.16 1.44 0.05 1.46-0.78 0.17-0.71-1.09-0.94-0.42-0.85 2.5 0.07 2.2 0.29 2.99 0.49 1.75 0.2-1.24 0.81-2.03 1.36-1.75 0.55 0.28 1.86-0.51 2.91-1.75 1.05-1.24 1.72-2.59 1.5-3-0.23-0.41-0.75-0.71-1.16-0.67-0.41 0.04-1.4 0.3-2.2 0.58zm-42.78 46.34c0 2.47 0.2 3.37 0.44 2 0.23-1.38 0.23-3.4 0-4.5-0.24-1.1-0.44 0.03-0.44 2.5z"/>
			<path id="Path 25" fill-rule="evenodd" class="s10" d="m116.25 132.3c0.41 0.94 0.75 2.04 0.75 2.45 0 0.41 0.67 0.75 1.5 0.75 0.83 0 1.51-0.45 1.51-1.01 0.01-0.55-1-1.66-2.25-2.45-2.05-1.3-2.19-1.27-1.51 0.26zm-4.37 6.29c0.06 1.33 0.46 2.41 0.87 2.41 0.41 0.01 1.31-0.89 2-2 1.09-1.75 0.98-2.05-0.87-2.41-1.71-0.32-2.1 0.06-2 2z"/>
			<path id="Path 26" fill-rule="evenodd" class="s11" d="m118.93 87.25c-0.05 0.14-0.27 1.26-0.5 2.5-0.24 1.24 0.02 2.25 0.57 2.25 0.55 0 0.91-1.13 0.81-2.5-0.11-1.38-0.33-2.5-0.5-2.5-0.17 0-0.34 0.11-0.38 0.25zm-29.93 11.7c-1.02 0.66-1.18 1.32-0.5 2.07 0.72 0.8 1.49 0.67 2.75-0.46 1.6-1.43 1.75-1.39 1.75 0.44 0 1.1 0.34 2 0.75 1.99 0.41 0 0.71-1.01 0.67-2.25-0.05-1.42-0.78-2.33-2-2.5-1.06-0.14-2.6 0.18-3.42 0.71zm-3.45 4.05c-0.3 0.55-0.33 1.22-0.05 1.5 0.27 0.28 0.95 0.28 1.5 0 0.55-0.28 1-0.95 1-1.5 0-0.55-0.43-1-0.95-1-0.52 0-1.2 0.45-1.5 1zm24.68 55.25c0.15 1.52 0.61 2.75 1.02 2.75 0.41 0 1.42 0.22 2.25 0.5 1.03 0.34 1.42-0.1 1.25-1.4-0.14-1.05-0.6-2.29-1.03-2.75-0.43-0.47-0.78-0.17-0.78 0.65 0 1.11-0.39 0.98-1.49-0.5-1.44-1.93-1.49-1.9-1.22 0.75z"/>
			<path id="Path 27" fill-rule="evenodd" class="s12" d="m159 21c-1.93 1.62-3.16 2.96-2.75 2.97 0.41 0.02 2.55-0.87 4.75-1.97 2.2-1.1 4-2.45 4-3 0-0.55-0.56-0.99-1.25-0.97-0.69 0.01-2.82 1.35-4.75 2.97zm-47 73.5c0 0.83 0.34 1.7 0.75 1.93 0.41 0.24 1.42 0.02 2.25-0.5 1.33-0.83 1.33-1.04 0-1.91-0.83-0.55-1.84-1-2.25-1-0.41-0.01-0.75 0.65-0.75 1.48zm10.2 5.96c-0.66 0.85-0.86 1.74-0.45 1.97 0.41 0.24 1.42 0.04 2.25-0.45 1.05-0.63 1.19-1.22 0.45-1.98-0.75-0.78-1.39-0.65-2.25 0.46zm4.12 30.32c-0.36 0.3-0.58 0.93-0.49 1.39 0.09 0.45 1.03 0.72 2.07 0.58 1.05-0.14 2.17-0.47 2.49-0.75 0.32-0.28-0.32-0.79-1.42-1.14-1.1-0.35-2.29-0.39-2.65-0.08zm-121.3 30.97c0.01 0.41 0.8 1.71 1.75 2.89 0.95 1.18 2.74 2.42 3.98 2.75q2.26 0.62 1.97-0.64c-0.15-0.69-0.66-1.93-1.12-2.75-0.76-1.33-0.94-1.33-1.62 0-0.63 1.23-0.97 1.09-1.87-0.75-0.61-1.24-1.56-2.25-2.11-2.25-0.55 0-0.99 0.34-0.98 0.75z"/>
			<path id="Path 28" fill-rule="evenodd" class="s13" d="m15.2 171c-0.12 1.17 0.85 2.73 2.33 3.75 1.38 0.96 2.73 1.41 3 1 0.26-0.41-0.54-2.11-1.78-3.77-1.24-1.66-2.5-3.01-2.8-3-0.31 0.01-0.64 0.92-0.75 2.02zm177.22 2c-1.06 1.11-1.7 2.24-1.42 2.51 0.28 0.28 1.4-0.4 2.5-1.51 1.1-1.11 1.74-2.24 1.42-2.51-0.32-0.28-1.45 0.4-2.5 1.51z"/>
			<path id="Path 29" fill-rule="evenodd" class="s14" d="m101 100.09c-1.38 1.11-3.06 1.77-3.75 1.46-0.69-0.3-1.25-0.1-1.25 0.45 0 0.55 1.01 1.26 2.25 1.58 1.24 0.33 3.15 0.43 4.25 0.25 1.36-0.24 2.07-1.23 2.22-3.09 0.13-1.51-0.1-2.73-0.5-2.71-0.39 0.02-1.85 0.95-3.22 2.06zm10.55 0.91c-0.3 0.55-0.37 1.34-0.15 1.75 0.23 0.41 1.58 0.86 3 1 1.43 0.14 2.61-0.09 2.62-0.5 0.01-0.41-0.56-1.32-1.25-2.02-0.7-0.69-1.81-1.26-2.47-1.25-0.66 0.01-1.45 0.47-1.75 1.02z"/>
			<path id="Path 30" fill-rule="evenodd" class="s15" d="m112.08 118.93c-0.04 1.14 0.37 2.29 0.92 2.57 0.55 0.27 1.67 0.27 2.5 0 0.83-0.28 1.35-1.29 1.16-2.25-0.19-0.96-1.28-1.89-2.42-2.07-1.52-0.23-2.1 0.24-2.16 1.75zm16.17 21.65c-0.69 0.23-0.97 0.98-0.63 1.67 0.34 0.69 0.06 2.15-0.62 3.25-0.7 1.12-0.94 2.88-0.54 4 0.64 1.8 1.09 1.56 4.62-2.5 2.15-2.47 3.92-5.06 3.92-5.75 0-0.72-1.17-1.22-2.75-1.17-1.51 0.04-3.31 0.27-4 0.5z"/>
			<path id="Path 31" fill-rule="evenodd" class="s16" d="m97.58 87.08c-1.06 0.56-1.84 1.45-1.75 1.97 0.09 0.52 1.18 0.82 2.42 0.65 1.24-0.16 2.81-0.61 3.5-1 0.69-0.38 1.03-1.15 0.75-1.7-0.28-0.55-1.06-0.99-1.75-0.97-0.69 0.02-2.11 0.49-3.17 1.05zm22.92 44.59c-0.46 0.36-0.76 1.49-0.67 2.5 0.09 1.01-0.28 1.61-0.83 1.33-0.55-0.28-1.67 0.18-2.5 1-0.83 0.82-1.5 1.95-1.5 2.5 0 0.55 0.43 1 0.95 1 0.53 0 2.1-1.13 3.5-2.5 1.4-1.38 3-2.28 3.55-2 0.55 0.28 1-0.63 1-2 0-1.42-0.58-2.5-1.33-2.5-0.74 0-1.71 0.3-2.17 0.67z"/>
			<path id="Path 32" fill-rule="evenodd" class="s17" d="m113.95 149.51c-1.82 1.9-2.32 3.4-2.09 6.25 0.16 2.06 0.49 3.18 0.72 2.49 0.25-0.75 1.04-0.95 1.96-0.5 1.06 0.51 2.09-0.03 3.25-1.72 0.94-1.35 1.97-3.15 2.28-4 0.32-0.84-0.13-2.32-1-3.29-0.86-0.97-1.83-1.75-2.15-1.75-0.32 0.01-1.66 1.14-2.97 2.52z"/>
			<path id="Path 33" fill-rule="evenodd" class="s18" d="m119.95 82.03c0.03 0.53-0.74 0.73-1.7 0.44-1.38-0.42-1.7 0.01-1.5 2 0.14 1.39 0.7 2.53 1.25 2.53 0.55 0 1.62 0.56 2.38 1.25 0.76 0.69 2.39 1.92 3.64 2.75 1.24 0.83 3.43 2.48 4.87 3.68q2.61 2.17 4.11 1.33c1.26-0.7 1.3-1.32 0.25-3.92-0.69-1.7-2.26-4.1-3.49-5.34-1.23-1.24-3.14-2.72-4.25-3.3-1.1-0.58-2.82-1.36-3.81-1.72-0.98-0.37-1.77-0.23-1.75 0.3zm13.95 15.62c-1.2 1.44-1.19 1.75 0.1 2.23 0.82 0.31 2.06 1.14 2.75 1.84 1.01 1.03 1.29 0.82 1.48-1.1 0.13-1.31-0.48-2.89-1.35-3.51-1.24-0.88-1.9-0.77-2.98 0.54zm-13.56 11.3c-0.94 0.94-1.62 2.12-1.52 2.63 0.11 0.51 2.02 3.39 4.26 6.42 2.87 3.88 3.75 5.79 2.98 6.5-0.6 0.55-1.09 1.56-1.08 2.25 0.01 0.69 0.69 1.25 1.52 1.25 0.82 0 1.89 0.79 2.37 1.75 0.49 1 1.35 1.43 2 1 0.82-0.54 0.71-1.37-0.38-3-0.83-1.24-1.5-2.59-1.5-3 0.01-0.41 0.46-0.53 1.01-0.25 0.55 0.28 1.06-0.95 1.13-2.75l0.13-3.25c1.22 6.62 1.3 6.67 2.98 4.86 0.96-1.02 1.96-3.66 2.22-5.86 0.38-3.21-0.01-4.59-1.98-7-2.1-2.55-3.21-3.02-7.46-3.13-3.51-0.1-5.49 0.37-6.68 1.58zm22.86 10.05c-0.15 2.25 0.62 3.76 3.05 6.02 2.64 2.45 3.49 2.78 4.54 1.75 0.72-0.7 1.28-1.83 1.25-2.52-0.02-0.69-0.87-1.81-1.88-2.5-1.01-0.69-2.36-2.26-3-3.5-0.64-1.24-1.75-2.25-2.46-2.25-0.74 0-1.39 1.3-1.5 3zm-28.91 2.8c-0.67 0.42-1.54 2.77-1.93 5.23l-0.72 4.47c7.92-6.16 8.23-6.71 7.11-8.5-0.69-1.11-1.7-2-2.25-1.99-0.55 0.01-1.55 0.36-2.21 0.79zm1.2 8.57c-2.68 2.23-3.58 3.64-3.13 4.88 0.35 0.96 1.43 1.62 2.39 1.46 1.29-0.21 1.68-1.07 1.47-3.25-0.23-2.55-0.06-2.79 1.25-1.71 1.22 1 1.84 1 3.07 0 0.85-0.69 1.51-1.76 1.46-2.39-0.05-0.63-0.69-1.37-1.42-1.63-0.73-0.27-3.03 0.92-5.09 2.64z"/>
			<path id="Path 34" fill-rule="evenodd" class="s17" d="m96 97.5c0 1.38 0.67 2.72 1.5 3 0.83 0.28 1.95-0.17 2.5-1 0.69-1.04 0.61-1.98-0.25-3.04-0.69-0.85-1.81-1.53-2.5-1.5-0.69 0.02-1.25 1.17-1.25 2.54z"/>
		</g>
	</g>
</svg>